<?xml version="1.0" encoding="UTF-8" standalone="no"?>
<!DOCTYPE svg PUBLIC "-//W3C//DTD SVG 1.1//EN" "http://www.w3.org/Graphics/SVG/1.1/DTD/svg11.dtd">
<svg width="100%" height="100%" viewBox="0 0 512 512" version="1.1" xmlns="http://www.w3.org/2000/svg" xmlns:xlink="http://www.w3.org/1999/xlink" xml:space="preserve" xmlns:serif="http://www.serif.com/" style="fill-rule:evenodd;clip-rule:evenodd;stroke-linejoin:round;stroke-miterlimit:1.41421;">
    <path d="M167.874,72.172C160.129,75.538 151.435,77.326 142.429,77.326C133.355,77.326 124.607,75.514 116.826,72.103C114.22,76.729 109.405,79.62 104.097,79.763C105.8,99.702 122.513,115.356 142.892,115.356C163.266,115.356 179.977,99.709 181.687,79.777C175.138,79.776 170.476,76.735 167.874,72.172Z" style="fill:rgb(251,227,194);fill-rule:nonzero;"/>
    <path d="M132.463,354.105C118.168,360.05 102.169,350.75 100.137,335.507C99.405,330.016 94.3,291.724 93.693,287.167L91.513,285.682C91.513,285.682 91.339,283.147 91.339,488.122C91.339,501.31 102.03,512 115.217,512C128.404,512 139.095,501.31 139.095,488.122L139.095,351.347L132.463,354.105Z" style="fill:rgb(251,227,194);fill-rule:nonzero;"/>
    <path d="M238.756,172.014C238.631,147.008 218.183,126.665 193.179,126.665C184.71,126.665 118.499,126.665 109.884,126.665C113.995,136.55 141.965,203.812 146.385,214.44C148.507,219.543 148.515,225.168 146.407,230.278C146.292,230.558 146.158,230.826 146.032,231.099C158.477,242.649 161.779,261.22 153.981,276.391C159.849,290.427 163.562,299.31 169.405,313.285C174.382,325.253 168.694,339.038 156.726,344.016L146.179,348.401L146.179,488.121C146.179,501.309 156.87,511.999 170.057,511.999C183.244,511.999 193.935,501.309 193.935,488.121C193.935,477.367 193.935,215.496 193.935,172.227C193.935,170.842 195.056,169.719 196.44,169.715C197.825,169.712 198.952,170.829 198.958,172.214C199.249,230.059 199.2,203.17 199.137,293.056C199.129,304.045 208.032,312.961 219.021,312.968C219.027,312.968 219.03,312.968 219.036,312.968C230.018,312.968 238.927,304.068 238.934,293.084C238.998,203.06 239.048,230.005 238.756,172.014Z" style="fill:rgb(251,227,194);fill-rule:nonzero;"/>
    <path d="M135.322,219.041L68.419,58.155L75.458,55.228C79.901,53.38 82.005,48.28 80.157,43.838C78.309,39.394 73.209,37.291 68.767,39.139L61.728,42.066L56.704,29.986C54.856,25.542 49.758,23.439 45.314,25.286C40.87,27.134 38.766,32.234 40.614,36.677L73.959,116.861C71.548,114.259 67.69,113.29 64.226,114.73C59.783,116.578 57.679,121.677 59.526,126.121C62.883,134.194 83.2,183.05 85.943,189.646L135.886,223.666C136.114,222.151 135.954,220.559 135.322,219.041Z" style="fill:rgb(251,227,194);fill-rule:nonzero;"/>
    <path d="M158.344,317.885L145.572,287.334C135.268,296.625 120.36,299.789 106.789,294.734L112.013,333.924C113.016,341.448 120.892,345.943 127.864,343.044L152.126,332.954C158.005,330.509 160.788,323.763 158.344,317.885Z" style="fill:rgb(251,227,194);fill-rule:nonzero;"/>
    <path d="M131.267,242.564L72.917,202.818L75.635,198.035L56.295,151.526C40.942,178.536 41.706,177.193 29.252,199.101C24.131,208.111 26.783,219.545 35.349,225.379L108.863,275.454C117.949,281.646 130.327,279.291 136.511,270.212C142.699,261.128 140.35,248.75 131.267,242.564Z" style="fill:rgb(251,227,194);fill-rule:nonzero;"/>
    <path d="M190.373,64.126C188.735,55.288 184.707,33.482 184.707,32.671C184.706,14.628 165.778,0 142.43,0C120.149,0 101.908,13.324 100.284,30.222L100.153,30.222L94.25,64.166C93.92,66.062 95.382,67.797 97.304,67.797L103.692,67.797C104.841,67.797 105.897,67.161 106.433,66.144L112.095,55.418C119.778,61.537 130.526,65.345 142.43,65.345C154.238,65.345 164.909,61.6 172.578,55.569L178.237,66.157C178.776,67.166 179.827,67.795 180.971,67.795L187.326,67.795C189.261,67.795 190.728,66.038 190.373,64.126Z" style="fill:rgb(251,227,194);fill-rule:nonzero;"/>
    <path d="M414.238,72.172C406.493,75.538 397.799,77.326 388.793,77.326C379.719,77.326 370.971,75.514 363.19,72.103C360.584,76.729 355.769,79.62 350.461,79.763C352.164,99.702 368.877,115.356 389.256,115.356C409.63,115.356 426.341,99.709 428.051,79.777C421.503,79.776 416.841,76.735 414.238,72.172Z" style="fill:rgb(251,227,194);fill-rule:nonzero;"/>
    <path d="M378.828,354.105C364.533,360.05 348.534,350.75 346.502,335.507C345.77,330.016 340.665,291.724 340.058,287.167L337.878,285.682C337.878,285.682 337.704,283.147 337.704,488.122C337.704,501.31 348.395,512 361.582,512C374.769,512 385.46,501.31 385.46,488.122L385.46,351.347L378.828,354.105Z" style="fill:rgb(251,227,194);fill-rule:nonzero;"/>
    <path d="M485.122,172.014C484.995,147.008 464.548,126.665 439.543,126.665C431.074,126.665 364.863,126.665 356.248,126.665C360.359,136.55 388.329,203.812 392.749,214.44C394.871,219.543 394.879,225.168 392.771,230.278C392.656,230.558 392.522,230.826 392.396,231.099C404.841,242.649 408.143,261.22 400.345,276.391C406.213,290.427 409.926,299.31 415.769,313.285C420.746,325.253 415.058,339.038 403.09,344.016L392.543,348.401L392.543,488.121C392.543,501.309 403.234,511.999 416.421,511.999C429.608,511.999 440.299,501.309 440.299,488.121C440.299,477.367 440.299,215.496 440.299,172.227C440.299,170.842 441.42,169.719 442.804,169.715C444.189,169.712 445.316,170.829 445.323,172.214C445.614,230.059 445.565,203.17 445.502,293.056C445.494,304.045 454.397,312.961 465.386,312.968C465.392,312.968 465.395,312.968 465.401,312.968C476.383,312.968 485.292,304.068 485.299,293.084C485.364,203.061 485.413,230.005 485.122,172.014Z" style="fill:rgb(251,227,194);fill-rule:nonzero;"/>
    <path d="M381.687,219.041L314.783,58.155L321.822,55.228C326.265,53.38 328.369,48.28 326.521,43.838C324.673,39.394 319.573,37.291 315.131,39.139L308.092,42.066L303.068,29.986C301.22,25.542 296.122,23.439 291.678,25.286C287.235,27.134 285.13,32.234 286.978,36.677L320.323,116.861C317.912,114.259 314.054,113.29 310.591,114.73C306.147,116.578 304.044,121.677 305.891,126.121C309.248,134.194 329.565,183.05 332.308,189.646L382.251,223.666C382.478,222.151 382.318,220.559 381.687,219.041Z" style="fill:rgb(251,227,194);fill-rule:nonzero;"/>
    <path d="M404.708,317.885L391.936,287.334C381.632,296.625 366.724,299.789 353.153,294.734L358.377,333.924C359.38,341.448 367.256,345.943 374.228,343.044L398.49,332.954C404.369,330.509 407.152,323.763 404.708,317.885Z" style="fill:rgb(251,227,194);fill-rule:nonzero;"/>
    <path d="M377.632,242.564L319.282,202.818L322,198.035L302.659,151.526C287.306,178.536 288.07,177.193 275.616,199.101C270.495,208.111 273.147,219.545 281.714,225.379L355.228,275.454C364.315,281.646 376.693,279.291 382.877,270.212C389.063,261.128 386.715,248.75 377.632,242.564Z" style="fill:rgb(251,227,194);fill-rule:nonzero;"/>
    <path d="M436.737,64.126C435.099,55.288 431.071,33.482 431.071,32.671C431.071,14.628 412.142,0 388.794,0C366.513,0 348.272,13.324 346.648,30.222L346.517,30.222L340.614,64.165C340.284,66.061 341.746,67.796 343.668,67.796L350.056,67.796C351.205,67.796 352.261,67.16 352.797,66.143L358.459,55.417C366.142,61.536 376.89,65.344 388.794,65.344C400.602,65.344 411.273,61.599 418.942,55.568L424.601,66.156C425.14,67.165 426.191,67.794 427.335,67.794L433.69,67.794C435.625,67.795 437.092,66.038 436.737,64.126Z" style="fill:rgb(251,227,194);fill-rule:nonzero;"/>
</svg>
