<?xml version="1.0" encoding="UTF-8" standalone="no"?>
<!DOCTYPE svg PUBLIC "-//W3C//DTD SVG 1.1//EN" "http://www.w3.org/Graphics/SVG/1.1/DTD/svg11.dtd">
<svg width="100%" height="100%" viewBox="0 0 269 269" version="1.1" xmlns="http://www.w3.org/2000/svg" xmlns:xlink="http://www.w3.org/1999/xlink" xml:space="preserve" xmlns:serif="http://www.serif.com/" style="fill-rule:evenodd;clip-rule:evenodd;stroke-linejoin:round;stroke-miterlimit:1.41421;">
    <g transform="matrix(0.525058,0,0,0.525058,134.415,134.415)">
        <g id="Attack-button" serif:id="Attack button" transform="matrix(1,0,0,1,-256,-256)">
            <clipPath id="_clip1">
                <rect x="0" y="0" width="512" height="512"/>
            </clipPath>
            <g clip-path="url(#_clip1)">
                <path d="M73.88,62.363C73.75,61.723 73.55,61.093 73.3,60.493C73.05,59.893 72.74,59.313 72.38,58.763C72.02,58.223 71.6,57.713 71.14,57.243C70.68,56.783 70.17,56.363 69.62,56.003C69.08,55.643 68.5,55.333 67.89,55.083C67.29,54.833 66.66,54.643 66.02,54.513C64.73,54.253 63.41,54.253 62.12,54.513C61.48,54.643 60.85,54.833 60.25,55.083C59.64,55.333 59.06,55.643 58.52,56.003C57.97,56.363 57.46,56.783 57,57.243C56.54,57.713 56.12,58.223 55.76,58.763C55.4,59.313 55.09,59.893 54.84,60.493C54.59,61.093 54.39,61.723 54.27,62.363C54.14,63.013 54.07,63.663 54.07,64.323C54.07,64.973 54.14,65.623 54.27,66.273C54.39,66.913 54.59,67.543 54.84,68.143C55.09,68.743 55.4,69.323 55.76,69.873C56.12,70.413 56.54,70.933 57,71.393C57.46,71.853 57.97,72.273 58.52,72.633C59.06,72.993 59.64,73.303 60.25,73.553C60.85,73.803 61.48,73.993 62.12,74.123C62.76,74.253 63.42,74.323 64.07,74.323C64.72,74.323 65.38,74.253 66.02,74.123C66.66,73.993 67.29,73.803 67.89,73.553C68.5,73.303 69.08,72.993 69.62,72.633C70.17,72.273 70.68,71.853 71.14,71.393C73,69.523 74.07,66.953 74.07,64.323C74.07,63.663 74.01,63.013 73.88,62.363Z" style="fill:rgb(251,227,194);fill-rule:nonzero;"/>
                <path d="M457.73,62.363C457.61,61.723 457.41,61.093 457.16,60.493C456.91,59.893 456.6,59.313 456.24,58.763C455.88,58.223 455.46,57.713 455,57.243C454.54,56.783 454.03,56.373 453.48,56.003C452.94,55.643 452.36,55.333 451.75,55.083C451.15,54.833 450.52,54.643 449.88,54.513C448.59,54.253 447.27,54.253 445.98,54.513C445.34,54.643 444.71,54.833 444.1,55.083C443.5,55.333 442.92,55.643 442.38,56.003C441.83,56.373 441.32,56.783 440.86,57.243C440.4,57.713 439.98,58.223 439.62,58.763C439.25,59.313 438.95,59.893 438.7,60.493C438.45,61.093 438.25,61.723 438.13,62.363C438,63.013 437.93,63.663 437.93,64.323C437.93,66.953 439,69.533 440.86,71.393C441.32,71.853 441.83,72.273 442.38,72.633C442.92,72.993 443.5,73.303 444.1,73.553C444.71,73.803 445.34,73.993 445.98,74.123C446.62,74.253 447.28,74.313 447.93,74.313C448.58,74.313 449.24,74.253 449.88,74.123C450.52,73.993 451.15,73.803 451.75,73.553C452.36,73.303 452.94,72.993 453.48,72.633C454.03,72.273 454.54,71.853 455,71.393C456.86,69.533 457.93,66.953 457.93,64.323C457.93,63.663 457.86,63.013 457.73,62.363Z" style="fill:rgb(251,227,194);fill-rule:nonzero;"/>
                <path d="M497.27,425.963C488.715,417.419 477.82,412.605 466.626,411.519L440.405,385.331C440.373,385.299 440.341,385.266 440.309,385.234C440.278,385.203 440.246,385.172 440.215,385.141L408.6,353.566C413.825,351.077 419.235,348.978 424.779,347.303C429.79,345.788 432.784,340.666 431.646,335.557L419.764,282.205C419.168,279.528 417.498,277.213 415.147,275.803C412.796,274.393 409.968,274.009 407.325,274.744C395.304,278.086 383.657,282.616 372.556,288.231L343.892,258.164L503.538,106.338C505.371,104.594 506.476,102.22 506.628,99.694L511.982,10.918C512.154,8.062 511.095,5.269 509.072,3.245C507.049,1.222 504.262,0.16 501.4,0.334L412.515,5.68C409.993,5.832 407.621,6.933 405.878,8.762L256,165.971L106.123,8.761C104.379,6.932 102.008,5.831 99.486,5.679L10.601,0.332C7.746,0.157 4.951,1.22 2.928,3.243C0.905,5.266 -0.155,8.06 0.018,10.916L5.372,99.692C5.524,102.218 6.629,104.592 8.462,106.336L168.108,258.162L139.443,288.229C128.342,282.614 116.695,278.084 104.674,274.742C102.031,274.009 99.204,274.39 96.852,275.801C94.5,277.211 92.831,279.526 92.235,282.203L80.352,335.555C79.214,340.664 82.208,345.786 87.219,347.301C92.763,348.977 98.173,351.076 103.398,353.565L45.372,411.518C34.179,412.604 23.283,417.419 14.729,425.963C5.232,435.45 0,448.065 0,461.484C0,474.902 5.231,487.517 14.73,497.005C24.531,506.793 37.404,511.687 50.277,511.687C63.15,511.687 76.024,506.793 85.824,497.005C94.162,488.677 99.211,477.94 100.321,466.365L158.335,408.424C160.83,413.647 162.933,419.054 164.613,424.596C165.913,428.887 169.86,431.697 174.176,431.697C174.894,431.697 175.623,431.619 176.352,431.458L229.769,419.59C232.448,418.994 234.765,417.324 236.176,414.971C237.587,412.617 237.969,409.787 237.233,407.143C233.888,395.142 229.356,383.513 223.738,372.43L256,341.748L288.262,372.429C282.644,383.512 278.111,395.141 274.767,407.142C274.03,409.786 274.413,412.616 275.824,414.97C277.236,417.324 279.552,418.993 282.231,419.589L335.648,431.457C336.377,431.619 337.105,431.696 337.824,431.696C342.14,431.696 346.087,428.885 347.387,424.595C349.066,419.053 351.17,413.646 353.665,408.423L411.679,466.364C412.789,477.939 417.838,488.676 426.176,497.003C435.977,506.791 448.85,511.685 461.723,511.685C474.596,511.685 487.47,506.791 497.27,497.002C506.769,487.515 512,474.9 512,461.481C512,448.065 506.769,435.45 497.27,425.963ZM354.712,298.496C346.345,303.929 338.39,310.023 330.938,316.725L307.221,293.037L329.4,271.945L354.712,298.496ZM25.099,94.557L20.661,20.973L94.36,25.407L242.184,180.463L218.93,204.854L100.24,86.31C96.332,82.407 90,82.411 86.098,86.318C82.195,90.226 82.199,96.557 86.106,100.46L205.125,219.333L181.908,243.686L25.099,94.557ZM71.691,482.854C59.884,494.647 40.672,494.647 28.864,482.854C23.148,477.145 20,469.556 20,461.484C20,453.412 23.148,445.822 28.864,440.114C34.768,434.217 42.522,431.269 50.278,431.269C58.032,431.269 65.788,434.218 71.691,440.114C77.407,445.822 80.555,453.412 80.555,461.484C80.555,469.556 77.407,477.145 71.691,482.854ZM112.472,425.963C105.125,433.3 93.172,433.3 85.825,425.963C82.27,422.413 80.313,417.693 80.313,412.674C80.313,407.697 82.238,403.015 85.735,399.475L85.914,399.296C89.575,395.685 94.361,393.88 99.148,393.88C103.972,393.88 108.798,395.715 112.471,399.383C116.026,402.934 117.984,407.654 117.984,412.674C117.984,417.694 116.026,422.413 112.472,425.963ZM136.495,401.97C134.706,395.706 131.343,389.965 126.605,385.232C121.781,380.414 115.993,377.132 109.855,375.384L121.188,364.066C126.305,367.733 131.132,371.818 135.601,376.283C140.066,380.742 144.151,385.557 147.82,390.661L136.495,401.97ZM180.748,409.993C173.944,392.119 163.336,375.717 149.734,362.131C136.134,348.548 119.713,337.954 101.822,331.159L109.395,297.157C133.65,305.57 155.88,319.471 174.181,337.749C192.474,356.02 206.389,378.213 214.811,402.425L180.748,409.993ZM213.459,354.605C208.021,346.248 201.921,338.303 195.213,330.86L425.894,100.461C429.802,96.558 429.805,90.227 425.902,86.319C421.999,82.412 415.668,82.407 411.76,86.311L181.063,316.725C173.611,310.023 165.656,303.929 157.289,298.496L417.64,25.407L491.339,20.973L486.901,94.557L213.459,354.605ZM270.511,327.948L292.723,306.824L316.788,330.859C310.079,338.302 303.979,346.248 298.541,354.605L270.511,327.948ZM331.252,409.993L297.189,402.425C305.611,378.213 319.526,356.02 337.819,337.749C356.119,319.471 378.349,305.569 402.605,297.157L410.178,331.159C392.287,337.954 375.866,348.548 362.266,362.131C348.664,375.717 338.056,392.12 331.252,409.993ZM375.505,401.971L364.18,390.661C367.849,385.556 371.935,380.742 376.399,376.283C380.869,371.819 385.696,367.733 390.813,364.066L402.145,375.384C396.007,377.132 390.219,380.414 385.395,385.233C380.656,389.966 377.293,395.707 375.505,401.971ZM426.175,425.963C418.828,433.3 406.875,433.301 399.529,425.963C395.974,422.413 394.017,417.693 394.017,412.674C394.017,407.654 395.975,402.934 399.529,399.384C403.203,395.715 408.027,393.881 412.853,393.881C417.637,393.88 422.422,395.685 426.083,399.292L426.271,399.48C429.765,403.02 431.688,407.699 431.688,412.673C431.688,417.693 429.73,422.412 426.175,425.963ZM483.136,482.854C471.328,494.647 452.116,494.647 440.309,482.854C434.593,477.145 431.445,469.556 431.445,461.484C431.445,453.412 434.593,445.822 440.309,440.114C452.117,428.321 471.33,428.322 483.136,440.114C488.852,445.823 492,453.412 492,461.485C492,469.556 488.852,477.145 483.136,482.854Z" style="fill:rgb(251,227,194);fill-rule:nonzero;"/>
            </g>
        </g>
    </g>
</svg>
