<?xml version="1.0" encoding="UTF-8" standalone="no"?>
<!DOCTYPE svg PUBLIC "-//W3C//DTD SVG 1.1//EN" "http://www.w3.org/Graphics/SVG/1.1/DTD/svg11.dtd">
<svg width="100%" height="100%" viewBox="0 0 269 269" version="1.1" xmlns="http://www.w3.org/2000/svg" xmlns:xlink="http://www.w3.org/1999/xlink" xml:space="preserve" xmlns:serif="http://www.serif.com/" style="fill-rule:evenodd;clip-rule:evenodd;stroke-linejoin:round;stroke-miterlimit:1.41421;">
    <g transform="matrix(0.525001,0,0,0.525001,134.4,134.4)">
        <g transform="matrix(1,0,0,1,-256,-256)">
            <path d="M448.25,82.641C347.623,82.641 293.533,28.874 275.76,11.206C271.591,7.062 269.295,4.779 266.328,2.941C263.225,1.019 259.656,0.002 256.007,0L255.995,0C252.342,0 248.769,1.018 245.668,2.94C243.358,4.371 241.741,5.95 238.8,8.824C232.182,15.287 216.684,30.422 192.81,45.348C153.215,70.094 109.791,82.64 63.747,82.64C52.933,82.64 44.135,91.437 44.135,102.249L44.135,228.314C44.135,291.001 63.918,350.717 101.346,401.008C141.805,455.358 194.728,494.481 250.367,511.173C252.198,511.721 254.093,511.999 256,511.999C257.907,511.999 259.802,511.721 261.636,511.171C317.272,494.481 370.195,455.358 410.656,401.006C448.083,350.717 467.865,291.001 467.865,228.314L467.865,102.25C467.862,91.438 459.064,82.641 448.25,82.641ZM245.997,488.701C198.149,471.694 152.809,436.65 117.388,389.068C82.548,342.255 64.133,286.668 64.133,228.316L64.133,102.64C113.842,102.571 160.696,89.002 203.41,62.307C222.912,50.114 237.16,37.853 245.997,29.622L245.997,54.203C235.652,62.813 224.633,70.787 213.191,77.94C175.519,101.484 134.615,115.546 91.613,119.734C86.49,120.234 82.583,124.54 82.583,129.687L82.583,228.314C82.583,282.674 99.736,334.455 132.19,378.06C163.721,420.417 203.908,452.483 245.997,469.02L245.997,488.701ZM255.997,451.438C216.392,436.606 178.241,406.429 148.235,366.12C118.37,325.993 102.584,278.341 102.584,228.316L102.584,138.623C145.385,133.135 186.117,118.447 223.793,94.9C234.817,88.008 245.474,80.401 255.566,72.225C299.388,109.592 351.062,131.966 409.412,138.833L409.412,228.316C409.412,278.341 393.626,325.994 363.76,366.123C333.755,406.428 295.604,436.604 255.997,451.438ZM447.862,228.315C447.862,286.668 429.447,342.254 394.609,389.065C359.184,436.652 313.846,471.696 265.998,488.702L265.998,469.02C308.088,452.481 348.274,420.417 379.804,378.064C412.258,334.457 429.412,282.675 429.412,228.315L429.412,129.813C429.412,124.634 425.458,120.312 420.3,119.853C361.292,114.594 309.405,92.716 265.998,54.808L265.998,29.671C288.82,51.915 346.432,102.514 447.862,102.64L447.862,228.315Z" style="fill:rgb(251,227,194);fill-rule:nonzero;"/>
            <path d="M345.435,340.037C341.003,336.738 334.74,337.657 331.442,342.087C309.661,371.346 283.655,393.906 255.996,407.588C228.34,393.907 202.334,371.345 180.551,342.081C173.044,331.993 166.529,321.194 161.19,309.983C158.815,304.996 152.847,302.88 147.862,305.254C142.875,307.628 140.758,313.596 143.133,318.582C149.031,330.967 156.222,342.891 164.507,354.022C189.38,387.435 219.572,412.931 251.82,427.752C253.145,428.361 254.57,428.666 255.996,428.666C257.421,428.666 258.847,428.361 260.172,427.754C292.423,412.931 322.616,387.438 347.485,354.03C350.783,349.6 349.865,343.335 345.435,340.037Z" style="fill:rgb(251,227,194);fill-rule:nonzero;"/>
            <path d="M381.081,154.873C337.132,146.138 296.74,128.473 261.03,102.369C257.575,99.843 252.894,99.797 249.39,102.252C244.538,105.651 239.544,108.959 234.547,112.083C202.03,132.406 167.119,146.632 130.785,154.367C126.168,155.35 122.867,159.427 122.867,164.148L122.867,228.315C122.867,234.24 123.114,240.218 123.601,246.082C124.035,251.304 128.408,255.254 133.555,255.254C133.833,255.254 134.113,255.243 134.397,255.219C139.901,254.761 143.992,249.929 143.535,244.425C143.093,239.109 142.869,233.689 142.869,228.315L142.869,172.142C178.641,163.607 213.013,149.127 245.149,129.043C248.45,126.979 251.75,124.839 255.013,122.648C289.428,146.671 327.747,163.507 369.132,172.787L369.132,228.314C369.132,233.837 373.61,238.314 379.132,238.314C384.654,238.314 389.132,233.837 389.132,228.314L389.132,164.681C389.132,159.91 385.76,155.803 381.081,154.873Z" style="fill:rgb(251,227,194);fill-rule:nonzero;"/>
            <path d="M149.656,280.22C149.526,279.58 149.336,278.95 149.086,278.35C148.836,277.75 148.526,277.16 148.166,276.62C147.806,276.07 147.386,275.56 146.926,275.1C146.456,274.64 145.946,274.22 145.406,273.86C144.856,273.5 144.277,273.19 143.676,272.94C143.077,272.69 142.447,272.5 141.806,272.37C140.516,272.11 139.186,272.11 137.896,272.37C137.256,272.5 136.627,272.69 136.027,272.94C135.427,273.19 134.847,273.5 134.297,273.86C133.756,274.22 133.237,274.64 132.777,275.1C132.316,275.56 131.896,276.07 131.537,276.62C131.177,277.16 130.867,277.75 130.617,278.35C130.367,278.95 130.177,279.58 130.047,280.22C129.917,280.86 129.847,281.52 129.847,282.17C129.847,282.83 129.917,283.48 130.047,284.13C130.177,284.77 130.367,285.39 130.617,286C130.867,286.6 131.177,287.18 131.537,287.72C131.896,288.27 132.316,288.78 132.777,289.24C133.237,289.71 133.757,290.12 134.297,290.49C134.846,290.85 135.426,291.16 136.027,291.41C136.626,291.66 137.256,291.85 137.896,291.98C138.546,292.11 139.197,292.17 139.856,292.17C140.507,292.17 141.157,292.11 141.806,291.98C142.447,291.85 143.076,291.66 143.676,291.41C144.276,291.16 144.855,290.85 145.406,290.49C145.947,290.12 146.456,289.71 146.926,289.24C147.386,288.78 147.806,288.27 148.166,287.72C148.526,287.18 148.836,286.6 149.086,286C149.336,285.39 149.526,284.77 149.656,284.13C149.785,283.48 149.845,282.83 149.845,282.17C149.846,281.52 149.786,280.86 149.656,280.22Z" style="fill:rgb(251,227,194);fill-rule:nonzero;"/>
            <path d="M349.304,260.708L335.274,229.155C334.025,226.346 331.553,224.268 328.571,223.519C325.593,222.772 322.43,223.434 320.002,225.321C319.836,225.45 305.183,236.626 281.392,239.394C284.184,215.834 295.351,200.93 295.456,200.792C297.343,198.364 298.009,195.203 297.26,192.22C296.511,189.237 294.432,186.765 291.621,185.516L260.058,171.49C257.474,170.341 254.521,170.341 251.937,171.49L220.374,185.516C217.563,186.765 215.484,189.237 214.735,192.22C213.986,195.203 214.652,198.364 216.539,200.792C216.668,200.957 227.845,215.604 230.615,239.382C207.042,236.591 192.131,225.424 191.993,225.32C189.566,223.435 186.403,222.771 183.424,223.518C180.442,224.266 177.97,226.345 176.721,229.154L162.691,260.707C161.542,263.293 161.542,266.247 162.691,268.833L176.721,300.386C177.97,303.195 180.442,305.273 183.424,306.022C186.404,306.77 189.564,306.106 191.993,304.22C192.159,304.091 206.812,292.915 230.603,290.147C227.811,313.708 216.643,328.612 216.539,328.75C214.652,331.178 213.986,334.34 214.735,337.322C215.484,340.305 217.563,342.777 220.374,344.026L251.937,358.052C253.229,358.627 254.614,358.914 255.998,358.914C257.382,358.914 258.767,358.627 260.059,358.052L291.622,344.026C294.418,342.784 296.476,340.312 297.235,337.348C297.993,334.385 297.339,331.218 295.484,328.786C295.355,328.617 284.188,313.716 281.394,290.161C304.957,292.954 319.864,304.117 320.002,304.221C322.429,306.107 325.592,306.77 328.571,306.023C331.553,305.275 334.025,303.196 335.274,300.387L349.304,268.834C350.453,266.248 350.453,263.294 349.304,260.708ZM321.619,281.875C311.126,276.413 293.415,269.534 270.765,269.534C265.243,269.534 260.765,274.011 260.765,279.534C260.765,302.173 267.644,319.877 273.108,330.368L255.998,337.971L238.888,330.368C244.352,319.877 251.23,302.173 251.231,279.535C251.231,274.012 246.753,269.535 241.231,269.535C218.58,269.535 200.869,276.414 190.377,281.876L182.773,264.772L190.377,247.668C200.87,253.13 218.581,260.009 241.231,260.009C246.753,260.009 251.231,255.532 251.231,250.009C251.231,227.369 244.352,209.665 238.889,199.175L255.998,191.572L273.107,199.174C267.644,209.664 260.765,227.368 260.765,250.008C260.765,255.531 265.243,260.008 270.765,260.008C293.416,260.008 311.127,253.129 321.619,247.667L329.223,264.771L321.619,281.875Z" style="fill:rgb(251,227,194);fill-rule:nonzero;"/>
        </g>
    </g>
</svg>
