<?xml version="1.0" encoding="UTF-8" standalone="no"?>
<!DOCTYPE svg PUBLIC "-//W3C//DTD SVG 1.1//EN" "http://www.w3.org/Graphics/SVG/1.1/DTD/svg11.dtd">
<svg width="100%" height="100%" viewBox="0 0 158 158" version="1.1" xmlns="http://www.w3.org/2000/svg" xmlns:xlink="http://www.w3.org/1999/xlink" xml:space="preserve" xmlns:serif="http://www.serif.com/" style="fill-rule:evenodd;clip-rule:evenodd;stroke-linecap:round;stroke-linejoin:round;stroke-miterlimit:1;">
    <g transform="matrix(1,0,0,1,-2265,-1927)">
        <circle cx="2344" cy="2006" r="74" style="fill:none;stroke:rgb(251,227,194);stroke-width:10px;"/>
    </g>
    <g transform="matrix(1,0,0,1,-2183.6,-1883.8)">
        <path d="M2228.11,1935.51L2229.84,1934.22C2230.61,1934.7 2231.43,1934.94 2232.29,1934.94C2232.77,1934.94 2233.66,1934.38 2234.95,1933.28C2236.25,1932.18 2238.15,1930.95 2240.64,1929.61C2243.14,1928.27 2246.33,1927.04 2250.22,1925.94C2254.11,1924.83 2258.83,1924.28 2264.4,1924.28C2268.15,1924.28 2271.91,1924.66 2275.71,1925.43C2279.5,1926.2 2282.95,1927.42 2286.07,1929.11C2289.19,1930.79 2291.74,1932.94 2293.71,1935.59C2295.67,1938.23 2296.66,1941.42 2296.66,1945.16C2296.66,1948.62 2295.65,1951.81 2293.63,1954.74C2291.62,1957.66 2288.88,1959.51 2285.43,1960.28L2285.43,1960.57C2289.55,1961.53 2292.94,1963.42 2295.58,1966.26C2298.22,1969.09 2299.54,1972.66 2299.54,1976.99C2299.54,1981.88 2298.31,1985.91 2295.87,1989.08C2293.42,1992.25 2290.37,1994.77 2286.72,1996.64C2283.07,1998.51 2279.07,1999.76 2274.7,2000.38C2270.33,2001.01 2266.23,2001.32 2262.39,2001.32C2258.07,2001.32 2254.03,2000.91 2250.29,2000.1C2246.55,1999.28 2243.23,1998.32 2240.35,1997.22C2237.47,1996.11 2235.1,1995.11 2233.23,1994.19C2231.35,1993.28 2230.03,1992.83 2229.27,1992.83C2228.79,1992.83 2228.38,1992.92 2228.04,1993.11C2227.71,1993.31 2227.35,1993.5 2226.96,1993.69L2225.67,1993.26L2234.02,1972.52L2235.6,1973.38C2235.51,1973.58 2235.46,1973.91 2235.46,1974.39L2235.46,1975.4C2235.46,1977.61 2236.51,1979.58 2238.63,1981.31C2240.74,1983.03 2243.26,1984.5 2246.19,1985.7C2249.11,1986.9 2252.19,1987.81 2255.4,1988.43C2258.62,1989.06 2261.33,1989.37 2263.54,1989.37C2265.27,1989.37 2267.31,1989.2 2269.66,1988.87C2272.01,1988.53 2274.22,1987.93 2276.28,1987.07C2278.35,1986.2 2280.1,1985.03 2281.54,1983.54C2282.98,1982.05 2283.7,1980.11 2283.7,1977.71C2283.7,1975.4 2283,1973.55 2281.61,1972.16C2280.22,1970.77 2278.51,1969.69 2276.5,1968.92C2274.48,1968.15 2272.35,1967.65 2270.09,1967.41C2267.83,1967.17 2265.89,1967.05 2264.26,1967.05C2261.95,1967.05 2259.96,1967.27 2258.28,1967.7C2256.6,1968.13 2255.47,1969.21 2254.9,1970.94L2253.17,1970.94L2253.17,1951.35L2254.9,1951.35C2255.09,1953.27 2256.12,1954.55 2257.99,1955.17C2259.87,1955.79 2261.95,1956.11 2264.26,1956.11C2265.79,1956.11 2267.57,1955.96 2269.59,1955.67C2271.6,1955.38 2273.5,1954.86 2275.27,1954.09C2277.05,1953.32 2278.56,1952.27 2279.81,1950.92C2281.06,1949.58 2281.68,1947.9 2281.68,1945.88C2281.68,1943.96 2281.13,1942.4 2280.03,1941.2C2278.92,1940 2277.48,1939.07 2275.71,1938.39C2273.93,1937.72 2271.96,1937.27 2269.8,1937.03C2267.64,1936.79 2265.46,1936.66 2263.25,1936.66C2260.66,1936.66 2258.02,1936.95 2255.33,1937.53C2252.64,1938.11 2250.19,1938.87 2247.99,1939.83C2245.78,1940.79 2243.95,1941.85 2242.51,1943C2241.07,1944.15 2240.35,1945.31 2240.35,1946.46C2240.35,1946.84 2240.4,1947.3 2240.5,1947.83C2240.59,1948.35 2240.74,1948.86 2240.93,1949.34L2239.63,1950.2L2228.11,1935.51Z" style="fill:rgb(251,227,194);fill-rule:nonzero;"/>
    </g>
</svg>
