<?xml version="1.0" encoding="UTF-8" standalone="no"?>
<!DOCTYPE svg PUBLIC "-//W3C//DTD SVG 1.1//EN" "http://www.w3.org/Graphics/SVG/1.1/DTD/svg11.dtd">
<svg width="100%" height="100%" viewBox="0 0 158 158" version="1.1" xmlns="http://www.w3.org/2000/svg" xmlns:xlink="http://www.w3.org/1999/xlink" xml:space="preserve" xmlns:serif="http://www.serif.com/" style="fill-rule:evenodd;clip-rule:evenodd;stroke-linecap:round;stroke-linejoin:round;stroke-miterlimit:1;">
    <g transform="matrix(1,0,0,1,-2265,-1927)">
        <circle cx="2344" cy="2006" r="74" style="fill:none;stroke:rgb(251,227,194);stroke-width:10px;"/>
    </g>
    <g transform="matrix(1,0,0,1,-2182.95,-1883.58)">
        <path d="M2253.46,1999.16C2254.42,1999.16 2255.26,1998.9 2255.98,1998.37C2256.7,1997.84 2257.06,1996.76 2257.06,1995.13L2257.06,1947.03C2256.39,1947.03 2255.59,1947.08 2254.68,1947.18C2253.77,1947.27 2252.88,1947.44 2252.02,1947.68C2251.15,1947.92 2250.36,1948.26 2249.64,1948.69C2248.92,1949.12 2248.42,1949.72 2248.13,1950.49L2246.4,1950.49L2246.4,1932.35L2248.13,1932.35C2248.13,1933.21 2248.56,1933.81 2249.43,1934.14C2250.29,1934.48 2251.11,1934.65 2251.87,1934.65C2253.51,1934.65 2254.87,1934.14 2255.98,1933.14C2257.08,1932.13 2257.63,1930.9 2257.63,1929.47C2257.63,1928.12 2257.32,1927.26 2256.7,1926.87C2256.07,1926.49 2255.23,1926.2 2254.18,1926.01L2254.18,1924.28L2277.51,1924.28L2277.51,1926.01C2276.35,1926.2 2275.39,1926.54 2274.63,1927.02C2273.86,1927.5 2273.47,1928.22 2273.47,1929.18L2273.47,1995.13C2273.47,1996.76 2273.86,1997.84 2274.63,1998.37C2275.39,1998.9 2276.26,1999.16 2277.22,1999.16L2277.22,2000.89L2253.46,2000.89L2253.46,1999.16Z" style="fill:rgb(251,227,194);fill-rule:nonzero;"/>
    </g>
</svg>
