<?xml version="1.0" encoding="UTF-8" standalone="no"?>
<!DOCTYPE svg PUBLIC "-//W3C//DTD SVG 1.1//EN" "http://www.w3.org/Graphics/SVG/1.1/DTD/svg11.dtd">
<svg width="100%" height="100%" viewBox="0 0 158 158" version="1.1" xmlns="http://www.w3.org/2000/svg" xmlns:xlink="http://www.w3.org/1999/xlink" xml:space="preserve" xmlns:serif="http://www.serif.com/" style="fill-rule:evenodd;clip-rule:evenodd;stroke-linecap:round;stroke-linejoin:round;stroke-miterlimit:1;">
    <g transform="matrix(1,0,0,1,-2265,-1927)">
        <circle cx="2344" cy="2006" r="74" style="fill:none;stroke:rgb(251,227,194);stroke-width:10px;"/>
    </g>
    <g transform="matrix(1,0,0,1,-2184.39,-1884.52)">
        <path d="M2299.39,2002.76L2297.67,2002.76C2297.67,2001.71 2297.21,2001.13 2296.3,2001.03C2295.39,2000.94 2294.4,2000.89 2293.35,2000.89L2232.72,2000.89C2231.67,2000.89 2230.8,2000.96 2230.13,2001.11C2229.46,2001.25 2229.12,2001.75 2229.12,2002.62L2227.39,2002.62L2227.39,1997.43C2227.39,1992.35 2228.67,1987.98 2231.21,1984.33C2233.75,1980.68 2236.95,1977.47 2240.79,1974.68C2244.63,1971.9 2248.75,1969.45 2253.17,1967.34C2257.59,1965.23 2261.71,1963.14 2265.55,1961.07C2269.39,1959.01 2272.59,1956.87 2275.13,1954.66C2277.67,1952.46 2278.95,1949.87 2278.95,1946.89C2278.95,1944.87 2278.49,1943.22 2277.58,1941.92C2276.67,1940.62 2275.49,1939.57 2274.05,1938.75C2272.61,1937.94 2271.03,1937.38 2269.3,1937.1C2267.57,1936.81 2265.89,1936.66 2264.26,1936.66C2262.63,1936.66 2260.61,1936.95 2258.21,1937.53C2255.81,1938.11 2253.51,1938.97 2251.3,1940.12C2249.09,1941.27 2247.19,1942.64 2245.61,1944.23C2244.03,1945.81 2243.23,1947.61 2243.23,1949.62C2243.23,1950.11 2243.35,1950.73 2243.59,1951.5C2243.83,1952.27 2244.15,1952.79 2244.53,1953.08L2243.09,1954.09L2228.26,1938.25L2229.7,1937.24C2230.08,1937.43 2230.47,1937.62 2230.85,1937.82C2231.23,1938.01 2231.67,1938.11 2232.15,1938.11C2232.72,1938.11 2233.78,1937.38 2235.31,1935.94C2236.85,1934.51 2238.96,1932.92 2241.65,1931.19C2244.34,1929.47 2247.7,1927.88 2251.73,1926.44C2255.76,1925 2260.56,1924.28 2266.13,1924.28C2269.78,1924.28 2273.35,1924.71 2276.86,1925.58C2280.36,1926.44 2283.48,1927.81 2286.22,1929.68C2288.95,1931.55 2291.16,1933.95 2292.84,1936.88C2294.52,1939.81 2295.36,1943.38 2295.36,1947.61C2295.36,1952.12 2294.5,1955.87 2292.77,1958.84C2291.04,1961.82 2288.76,1964.34 2285.93,1966.4C2283.1,1968.47 2279.91,1970.22 2276.35,1971.66C2272.8,1973.1 2269.18,1974.51 2265.48,1975.9C2261.79,1977.3 2258.23,1978.76 2254.83,1980.3C2251.42,1981.83 2248.42,1983.8 2245.83,1986.2L2245.83,1987.64L2293.35,1987.64C2294.4,1987.64 2295.39,1987.45 2296.3,1987.07C2297.21,1986.68 2297.67,1985.53 2297.67,1983.61L2299.39,1983.61L2299.39,2002.76Z" style="fill:rgb(251,227,194);fill-rule:nonzero;"/>
    </g>
</svg>
