<?xml version="1.0" encoding="UTF-8" standalone="no"?>
<!DOCTYPE svg PUBLIC "-//W3C//DTD SVG 1.1//EN" "http://www.w3.org/Graphics/SVG/1.1/DTD/svg11.dtd">
<svg width="100%" height="100%" viewBox="0 0 345 147" version="1.1" xmlns="http://www.w3.org/2000/svg" xmlns:xlink="http://www.w3.org/1999/xlink" xml:space="preserve" xmlns:serif="http://www.serif.com/" style="fill-rule:evenodd;clip-rule:evenodd;stroke-linejoin:round;stroke-miterlimit:1.41421;">
    <g>
        <path d="M307.437,0.5C327.487,0.5 343.765,16.778 343.765,36.828L343.765,109.483C343.765,129.533 327.487,145.81 307.437,145.81L36.828,145.81C16.778,145.81 0.5,129.533 0.5,109.483L0.5,36.828C0.5,16.778 16.778,0.5 36.828,0.5L307.437,0.5ZM307.437,73.155L271.029,123.203L271.029,23.107L307.437,73.155ZM118.453,95.811C118.453,95.342 118.271,95.043 117.909,94.915C117.546,94.787 117.109,94.702 116.597,94.659L116.597,93.891L128.117,93.891L128.117,94.659C127.903,94.702 127.669,94.787 127.413,94.915C127.157,95.043 127.029,95.342 127.029,95.811L127.029,111.363C127.029,112.985 127.615,114.147 128.789,114.851C129.962,115.555 131.509,115.907 133.429,115.907C135.349,115.907 136.895,115.555 138.069,114.851C139.242,114.147 139.829,112.985 139.829,111.363L139.829,95.811C139.829,95.342 139.701,95.043 139.445,94.915C139.189,94.787 138.954,94.702 138.741,94.659L138.741,93.891L150.261,93.891L150.261,94.659C149.749,94.702 149.311,94.787 148.949,94.915C148.586,95.043 148.405,95.342 148.405,95.811L148.405,109.891C148.405,111.598 148.149,113.209 147.637,114.723C147.125,116.238 146.293,117.561 145.141,118.691C143.989,119.822 142.453,120.697 140.533,121.315C138.613,121.934 136.245,122.243 133.429,122.243C130.613,122.243 128.245,121.934 126.325,121.315C124.405,120.697 122.869,119.822 121.717,118.691C120.565,117.561 119.733,116.238 119.221,114.723C118.709,113.209 118.453,111.598 118.453,109.891L118.453,95.811ZM92.533,93.507C94.538,93.507 96.554,93.785 98.581,94.339C100.607,94.894 102.442,95.758 104.085,96.931C105.727,98.105 107.061,99.609 108.085,101.443C109.109,103.278 109.621,105.454 109.621,107.971C109.621,110.531 109.109,112.718 108.085,114.531C107.061,116.345 105.727,117.827 104.085,118.979C102.442,120.131 100.607,120.963 98.581,121.475C96.554,121.987 94.538,122.243 92.533,122.243C90.527,122.243 88.511,121.987 86.485,121.475C84.458,120.963 82.623,120.131 80.981,118.979C79.338,117.827 78.005,116.345 76.981,114.531C75.957,112.718 75.445,110.531 75.445,107.971C75.445,105.454 75.957,103.278 76.981,101.443C78.005,99.609 79.338,98.105 80.981,96.931C82.623,95.758 84.458,94.894 86.485,94.339C88.511,93.785 90.527,93.507 92.533,93.507ZM191.221,122.051L191.221,121.283C190.751,121.283 190.314,121.155 189.909,120.899C189.503,120.643 189.194,120.345 188.981,120.003L183.285,111.427C185.333,110.659 187.029,109.603 188.373,108.259C189.717,106.915 190.389,105.091 190.389,102.787C190.389,99.843 189.439,97.625 187.541,96.131C185.642,94.638 183.093,93.891 179.893,93.891L159.349,93.891L159.349,94.659C159.69,94.702 160.01,94.787 160.309,94.915C160.607,95.043 160.757,95.342 160.757,95.811L160.757,120.131C160.757,120.601 160.607,120.899 160.309,121.027C160.01,121.155 159.733,121.241 159.477,121.283L159.477,122.051L170.485,122.051L170.485,121.283C170.015,121.241 169.621,121.155 169.301,121.027C168.981,120.899 168.821,120.601 168.821,120.131L168.821,111.555L174.965,111.555C175.093,111.811 175.423,112.387 175.957,113.283C176.49,114.179 177.045,115.118 177.621,116.099C178.197,117.081 178.709,117.998 179.157,118.851C179.605,119.705 179.829,120.238 179.829,120.451C179.829,120.793 179.647,121.017 179.285,121.123C178.922,121.23 178.591,121.283 178.293,121.283L178.293,122.051L191.221,122.051ZM71.157,97.987L71.157,86.595L70.389,86.595C70.303,87.321 70.175,87.801 70.005,88.035C69.834,88.27 69.578,88.387 69.237,88.387L37.621,88.387C37.279,88.387 37.023,88.27 36.853,88.035C36.682,87.801 36.554,87.321 36.469,86.595L35.701,86.595L35.701,97.987L36.469,97.987C36.554,97.262 36.682,96.782 36.853,96.547C37.023,96.313 37.279,96.195 37.621,96.195L48.629,96.195L48.629,120.131C48.629,120.43 48.533,120.675 48.341,120.867C48.149,121.059 47.647,121.198 46.837,121.283L46.837,122.051L60.021,122.051L60.021,121.283C59.21,121.198 58.709,121.059 58.517,120.867C58.325,120.675 58.229,120.43 58.229,120.131L58.229,96.195L69.237,96.195C69.578,96.195 69.834,96.313 70.005,96.547C70.175,96.782 70.303,97.262 70.389,97.987L71.157,97.987ZM92.533,100.291C91.338,100.291 90.207,100.473 89.141,100.835C88.074,101.198 87.135,101.71 86.325,102.371C85.514,103.033 84.885,103.833 84.437,104.771C83.989,105.71 83.765,106.777 83.765,107.971C83.765,109.166 83.989,110.233 84.437,111.171C84.885,112.11 85.514,112.91 86.325,113.571C87.135,114.233 88.074,114.745 89.141,115.107C90.207,115.47 91.338,115.651 92.533,115.651C93.77,115.651 94.911,115.47 95.957,115.107C97.002,114.745 97.93,114.233 98.741,113.571C99.551,112.91 100.181,112.11 100.629,111.171C101.077,110.233 101.301,109.166 101.301,107.971C101.301,106.777 101.077,105.71 100.629,104.771C100.181,103.833 99.551,103.033 98.741,102.371C97.93,101.71 97.002,101.198 95.957,100.835C94.911,100.473 93.77,100.291 92.533,100.291ZM177.461,99.267C179.381,99.267 180.671,99.598 181.333,100.259C181.994,100.921 182.325,101.742 182.325,102.723C182.325,103.875 181.93,104.739 181.141,105.315C180.351,105.891 179.274,106.179 177.909,106.179L168.821,106.179L168.821,99.267L177.461,99.267ZM72.949,32.451L72.949,21.315L72.181,21.315C72.095,22.041 71.967,22.521 71.797,22.755C71.626,22.99 71.37,23.107 71.029,23.107L39.093,23.107L39.093,23.875C39.903,23.961 40.405,24.099 40.597,24.291C40.789,24.483 40.885,24.729 40.885,25.027L40.885,54.851C40.885,55.15 40.789,55.395 40.597,55.587C40.405,55.779 39.903,55.918 39.093,56.003L39.093,56.771L71.029,56.771C71.37,56.771 71.626,56.835 71.797,56.963C71.967,57.091 72.095,57.433 72.181,57.987L72.949,57.987L72.949,47.043L72.181,47.043C72.095,47.854 71.967,48.377 71.797,48.611C71.626,48.846 71.37,48.963 71.029,48.963L50.485,48.963L50.485,43.011L62.389,43.011C63.029,43.011 63.487,43.15 63.765,43.427C64.042,43.705 64.223,44.057 64.309,44.483L65.077,44.483L65.077,34.499L64.309,34.499C64.223,34.926 64.042,35.278 63.765,35.555C63.487,35.833 63.029,35.971 62.389,35.971L50.485,35.971L50.485,30.659L71.029,30.659C71.37,30.659 71.626,30.777 71.797,31.011C71.967,31.246 72.095,31.726 72.181,32.451L72.949,32.451ZM142.389,56.771C144.778,56.771 146.805,56.387 148.469,55.619C150.133,54.851 151.509,53.827 152.597,52.547C153.685,51.267 154.474,49.774 154.965,48.067C155.455,46.361 155.701,44.569 155.701,42.691C155.701,40.814 155.455,39.022 154.965,37.315C154.474,35.609 153.685,34.115 152.597,32.835C151.509,31.555 150.133,30.531 148.469,29.763C146.805,28.995 144.778,28.611 142.389,28.611L123.189,28.611L123.189,29.379C123.658,29.422 124.053,29.507 124.373,29.635C124.693,29.763 124.853,30.062 124.853,30.531L124.853,54.851C124.853,55.321 124.693,55.619 124.373,55.747C124.053,55.875 123.658,55.961 123.189,56.003L123.189,56.771L142.389,56.771ZM115.445,56.771L115.445,56.003C114.933,55.961 114.506,55.875 114.165,55.747C113.823,55.619 113.653,55.321 113.653,54.851L113.653,30.531C113.653,30.062 113.823,29.763 114.165,29.635C114.506,29.507 114.933,29.422 115.445,29.379L115.445,28.611L104.181,28.611L104.181,29.379C104.693,29.422 105.119,29.507 105.461,29.635C105.802,29.763 105.973,30.062 105.973,30.531L105.973,43.139C104.607,41.689 103.242,40.238 101.877,38.787C100.511,37.337 99.274,36.014 98.165,34.819C97.055,33.625 96.149,32.633 95.445,31.843C94.741,31.054 94.389,30.617 94.389,30.531C94.389,30.062 94.538,29.763 94.837,29.635C95.135,29.507 95.434,29.422 95.733,29.379L95.733,28.611L80.501,28.611L80.501,29.379C80.97,29.422 81.375,29.507 81.717,29.635C82.058,29.763 82.229,30.062 82.229,30.531L82.229,54.851C82.229,55.321 82.069,55.619 81.749,55.747C81.429,55.875 81.055,55.961 80.629,56.003L80.629,56.771L91.573,56.771L91.573,56.003C91.103,55.961 90.709,55.875 90.389,55.747C90.069,55.619 89.909,55.321 89.909,54.851L89.909,38.083L90.037,37.955C91.829,40.089 93.642,42.105 95.477,44.003C97.311,45.902 98.965,47.619 100.437,49.155C101.909,50.691 103.114,51.982 104.053,53.027C104.991,54.073 105.461,54.787 105.461,55.171C105.461,55.555 105.237,55.79 104.789,55.875C104.341,55.961 103.946,56.003 103.605,56.003L103.605,56.771L115.445,56.771ZM138.037,34.755C141.365,34.755 143.754,35.342 145.205,36.515C146.655,37.689 147.381,39.747 147.381,42.691C147.381,45.635 146.655,47.694 145.205,48.867C143.754,50.041 141.365,50.627 138.037,50.627L133.429,50.627L133.429,34.755L138.037,34.755Z" style="fill:rgb(251,227,194);"/>
    </g>
</svg>
