<?xml version="1.0" encoding="UTF-8" standalone="no"?>
<!DOCTYPE svg PUBLIC "-//W3C//DTD SVG 1.1//EN" "http://www.w3.org/Graphics/SVG/1.1/DTD/svg11.dtd">
<svg width="100%" height="100%" viewBox="0 0 512 512" version="1.1" xmlns="http://www.w3.org/2000/svg" xmlns:xlink="http://www.w3.org/1999/xlink" xml:space="preserve" xmlns:serif="http://www.serif.com/" style="fill-rule:evenodd;clip-rule:evenodd;stroke-linejoin:round;stroke-miterlimit:1.41421;">
    <path d="M445.555,141.52C444.464,139.244 442.498,137.506 440.104,136.707C406.908,125.618 385.051,91.436 370.445,56.138C359.404,29.456 335.78,27.951 322.304,29.545L322.304,27.074C322.304,23.716 320.637,20.752 318.091,18.947C320.863,17.091 322.69,13.932 322.69,10.345C322.69,4.631 318.058,0 312.344,0C306.631,0 301.998,4.633 301.998,10.346C301.998,13.932 303.825,17.092 306.597,18.948C304.051,20.752 302.384,23.717 302.384,27.075L302.384,160.804C302.172,160.934 301.954,161.049 301.745,161.19L254.853,192.873C192.114,163.106 196.276,164.835 193.21,164.231C188.903,175.482 176.828,207.03 172.563,218.172L177.575,194.565C177.927,192.907 177.671,191.178 176.855,189.693L169.973,177.176L176.091,166.049C177.002,164.392 175.801,162.358 173.909,162.358L157.116,162.358C155.225,162.358 154.021,164.39 154.934,166.049L161.052,177.176L154.144,189.739C153.343,191.195 153.081,192.888 153.405,194.52L157.787,218.172C148.094,193.312 142.897,178.403 136.752,162.642L118.345,162.642C112.451,162.642 106.97,165.67 103.832,170.658L68.16,227.367C65.66,231.343 64.899,236.169 66.056,240.722C67.212,245.274 70.187,249.152 74.283,251.45L119.681,276.927L119.689,491.424C119.689,502.788 128.901,512 140.265,512C151.629,512 160.841,502.788 160.841,491.424L160.841,326.959L169.725,326.959L169.725,491.423C169.725,502.787 178.937,511.999 190.301,511.999C201.665,511.999 210.877,502.787 210.877,491.423C210.877,213.746 210.503,381.336 210.503,209.784L248.995,228.048C254.459,230.642 260.908,230.168 265.944,226.764L302.386,202.143L302.386,492.076L280.8,492.076C275.299,492.076 270.839,496.536 270.839,502.037C270.839,507.538 275.299,511.998 280.8,511.998L341.895,511.998C347.396,511.998 351.856,507.538 351.856,502.037C351.856,496.536 347.396,492.076 341.895,492.076L322.309,492.076L322.309,188.578C323.122,187.903 323.849,187.161 324.507,186.372C331.726,193.627 340.761,206.206 348.536,227.698C359.038,256.729 377.037,269.604 388.092,275.009C390.455,276.164 393.203,276.258 395.645,275.28C398.087,274.302 400.004,272.34 400.92,269.874L445.895,148.786C446.77,146.421 446.646,143.797 445.555,141.52ZM119.677,237.601L106.783,230.364L119.677,209.867L119.677,237.601Z" style="fill:rgb(251,227,194);fill-rule:nonzero;"/>
    <path d="M165.511,120.626C152.54,120.626 138.569,116.938 128.11,109.349C127.644,130.549 144.699,147.606 165.511,147.606C186.322,147.606 203.379,130.549 202.912,109.343C192.437,116.949 178.46,120.626 165.511,120.626Z" style="fill:rgb(251,227,194);fill-rule:nonzero;"/>
    <path d="M165.512,27.394C135.859,27.394 112.028,49.075 112.028,67.624C112.026,78.199 118.648,84.191 128.72,87.414C128.72,96.766 146.088,107.023 165.511,107.023C184.717,107.023 202.288,96.874 202.288,87.419C212.415,84.183 218.995,78.171 218.995,67.624C218.995,48.951 195.028,27.394 165.512,27.394ZM165.511,92.085C162.074,92.085 158.23,86.529 158.23,79.093C158.23,71.657 162.074,66.1 165.511,66.1C168.948,66.1 172.792,71.656 172.792,79.093C172.792,86.529 168.948,92.085 165.511,92.085ZM196.093,74.14L182.435,74.14C180.78,63.723 173.899,56.061 165.511,56.061C156.846,56.061 150.184,64.088 148.587,74.14C148.207,74.14 135.035,74.175 134.667,74.078C126.525,71.931 126.525,69.129 126.525,67.622C126.524,57.911 143.459,41.891 165.511,41.891C187.009,41.891 204.496,57.47 204.496,67.623C204.496,71.521 200.289,73.066 196.093,74.14Z" style="fill:rgb(251,227,194);fill-rule:nonzero;"/>
</svg>
