<?xml version="1.0" encoding="UTF-8" standalone="no"?>
<!DOCTYPE svg PUBLIC "-//W3C//DTD SVG 1.1//EN" "http://www.w3.org/Graphics/SVG/1.1/DTD/svg11.dtd">
<svg width="100%" height="100%" viewBox="0 0 158 158" version="1.1" xmlns="http://www.w3.org/2000/svg" xmlns:xlink="http://www.w3.org/1999/xlink" xml:space="preserve" xmlns:serif="http://www.serif.com/" style="fill-rule:evenodd;clip-rule:evenodd;stroke-linejoin:round;stroke-miterlimit:1.41421;">
    <path d="M79,0C122.601,0 158,35.399 158,79C158,122.601 122.601,158 79,158C35.399,158 0,122.601 0,79C0,35.399 35.399,0 79,0ZM115,118.24L115,99.088L113.272,99.088C113.272,101.008 112.816,102.16 111.904,102.544C110.992,102.928 110.008,103.12 108.952,103.12L61.432,103.12L61.432,101.68C64.024,99.28 67.024,97.312 70.432,95.776C73.84,94.24 77.392,92.776 81.088,91.384C84.784,89.992 88.408,88.576 91.96,87.136C95.512,85.696 98.704,83.944 101.536,81.88C104.368,79.816 106.648,77.296 108.376,74.32C110.104,71.344 110.968,67.6 110.968,63.088C110.968,58.864 110.128,55.288 108.448,52.36C106.768,49.432 104.56,47.032 101.824,45.16C99.088,43.288 95.968,41.92 92.464,41.056C88.96,40.192 85.384,39.76 81.736,39.76C76.168,39.76 71.368,40.48 67.336,41.92C63.304,43.36 59.944,44.944 57.256,46.672C54.568,48.4 52.456,49.984 50.92,51.424C49.384,52.864 48.328,53.584 47.752,53.584C47.272,53.584 46.84,53.488 46.456,53.296C46.072,53.104 45.688,52.912 45.304,52.72L43.864,53.728L58.696,69.568L60.136,68.56C59.752,68.272 59.44,67.744 59.2,66.976C58.96,66.208 58.84,65.584 58.84,65.104C58.84,63.088 59.632,61.288 61.216,59.704C62.8,58.12 64.696,56.752 66.904,55.6C69.112,54.448 71.416,53.584 73.816,53.008C76.216,52.432 78.232,52.144 79.864,52.144C81.496,52.144 83.176,52.288 84.904,52.576C86.632,52.864 88.216,53.416 89.656,54.232C91.096,55.048 92.272,56.104 93.184,57.4C94.096,58.696 94.552,60.352 94.552,62.368C94.552,65.344 93.28,67.936 90.736,70.144C88.192,72.352 85,74.488 81.16,76.552C77.32,78.616 73.192,80.704 68.776,82.816C64.36,84.928 60.232,87.376 56.392,90.16C52.552,92.944 49.36,96.16 46.816,99.808C44.272,103.456 43,107.824 43,112.912L43,118.096L44.728,118.096C44.728,117.232 45.064,116.728 45.736,116.584C46.408,116.44 47.272,116.368 48.328,116.368L108.952,116.368C110.008,116.368 110.992,116.416 111.904,116.512C112.816,116.608 113.272,117.184 113.272,118.24L115,118.24Z" style="fill:rgb(251,227,194);"/>
</svg>
