<?xml version="1.0" encoding="UTF-8" standalone="no"?>
<!DOCTYPE svg PUBLIC "-//W3C//DTD SVG 1.1//EN" "http://www.w3.org/Graphics/SVG/1.1/DTD/svg11.dtd">
<svg width="100%" height="100%" viewBox="0 0 158 158" version="1.1" xmlns="http://www.w3.org/2000/svg" xmlns:xlink="http://www.w3.org/1999/xlink" xml:space="preserve" xmlns:serif="http://www.serif.com/" style="fill-rule:evenodd;clip-rule:evenodd;stroke-linejoin:round;stroke-miterlimit:1.41421;">
    <path d="M79,0C122.601,0 158,35.399 158,79C158,122.601 122.601,158 79,158C35.399,158 0,122.601 0,79C0,35.399 35.399,0 79,0ZM71.296,87.136C71.872,85.408 73,84.328 74.68,83.896C76.36,83.464 78.352,83.248 80.656,83.248C82.288,83.248 84.232,83.368 86.488,83.608C88.744,83.848 90.88,84.352 92.896,85.12C94.912,85.888 96.616,86.968 98.008,88.36C99.4,89.752 100.096,91.6 100.096,93.904C100.096,96.304 99.376,98.248 97.936,99.736C96.496,101.224 94.744,102.4 92.68,103.264C90.616,104.128 88.408,104.728 86.056,105.064C83.704,105.4 81.664,105.568 79.936,105.568C77.728,105.568 75.016,105.256 71.8,104.632C68.584,104.008 65.512,103.096 62.584,101.896C59.656,100.696 57.136,99.232 55.024,97.504C52.912,95.776 51.856,93.808 51.856,91.6L51.856,90.592C51.856,90.112 51.904,89.776 52,89.584L50.416,88.72L42.064,109.456L43.36,109.888C43.744,109.696 44.104,109.504 44.44,109.312C44.776,109.12 45.184,109.024 45.664,109.024C46.432,109.024 47.752,109.48 49.624,110.392C51.496,111.304 53.872,112.312 56.752,113.416C59.632,114.52 62.944,115.48 66.688,116.296C70.432,117.112 74.464,117.52 78.784,117.52C82.624,117.52 86.728,117.208 91.096,116.584C95.464,115.96 99.472,114.712 103.12,112.84C106.768,110.968 109.816,108.448 112.264,105.28C114.712,102.112 115.936,98.08 115.936,93.184C115.936,88.864 114.616,85.288 111.976,82.456C109.336,79.624 105.952,77.728 101.824,76.768L101.824,76.48C105.28,75.712 108.016,73.864 110.032,70.936C112.048,68.008 113.056,64.816 113.056,61.36C113.056,57.616 112.072,54.424 110.104,51.784C108.136,49.144 105.592,46.984 102.472,45.304C99.352,43.624 95.896,42.4 92.104,41.632C88.312,40.864 84.544,40.48 80.8,40.48C75.232,40.48 70.504,41.032 66.616,42.136C62.728,43.24 59.536,44.464 57.04,45.808C54.544,47.152 52.648,48.376 51.352,49.48C50.056,50.584 49.168,51.136 48.688,51.136C47.824,51.136 47.008,50.896 46.24,50.416L44.512,51.712L56.032,66.4L57.328,65.536C57.136,65.056 56.992,64.552 56.896,64.024C56.8,63.496 56.752,63.04 56.752,62.656C56.752,61.504 57.472,60.352 58.912,59.2C60.352,58.048 62.176,56.992 64.384,56.032C66.592,55.072 69.04,54.304 71.728,53.728C74.416,53.152 77.056,52.864 79.648,52.864C81.856,52.864 84.04,52.984 86.2,53.224C88.36,53.464 90.328,53.92 92.104,54.592C93.88,55.264 95.32,56.2 96.424,57.4C97.528,58.6 98.08,60.16 98.08,62.08C98.08,64.096 97.456,65.776 96.208,67.12C94.96,68.464 93.448,69.52 91.672,70.288C89.896,71.056 88,71.584 85.984,71.872C83.968,72.16 82.192,72.304 80.656,72.304C78.352,72.304 76.264,71.992 74.392,71.368C72.52,70.744 71.488,69.472 71.296,67.552L69.568,67.552L69.568,87.136L71.296,87.136Z" style="fill:rgb(251,227,194);"/>
</svg>
