<?xml version="1.0" encoding="UTF-8" standalone="no"?>
<!DOCTYPE svg PUBLIC "-//W3C//DTD SVG 1.1//EN" "http://www.w3.org/Graphics/SVG/1.1/DTD/svg11.dtd">
<svg width="100%" height="100%" viewBox="0 0 158 158" version="1.1" xmlns="http://www.w3.org/2000/svg" xmlns:xlink="http://www.w3.org/1999/xlink" xml:space="preserve" xmlns:serif="http://www.serif.com/" style="fill-rule:evenodd;clip-rule:evenodd;stroke-linejoin:round;stroke-miterlimit:1.41421;">
    <path d="M79,0C122.601,0 158,35.399 158,79C158,122.601 122.601,158 79,158C35.399,158 0,122.601 0,79C0,35.399 35.399,0 79,0ZM94.264,117.304L94.264,115.576C93.304,115.576 92.44,115.312 91.672,114.784C90.904,114.256 90.52,113.176 90.52,111.544L90.52,45.592C90.52,44.632 90.904,43.912 91.672,43.432C92.44,42.952 93.4,42.616 94.552,42.424L94.552,40.696L71.224,40.696L71.224,42.424C72.28,42.616 73.12,42.904 73.744,43.288C74.368,43.672 74.68,44.536 74.68,45.88C74.68,47.32 74.128,48.544 73.024,49.552C71.92,50.56 70.552,51.064 68.92,51.064C68.152,51.064 67.336,50.896 66.472,50.56C65.608,50.224 65.176,49.624 65.176,48.76L63.448,48.76L63.448,66.904L65.176,66.904C65.464,66.136 65.968,65.536 66.688,65.104C67.408,64.672 68.2,64.336 69.064,64.096C69.928,63.856 70.816,63.688 71.728,63.592C72.64,63.496 73.432,63.448 74.104,63.448L74.104,111.544C74.104,113.176 73.744,114.256 73.024,114.784C72.304,115.312 71.464,115.576 70.504,115.576L70.504,117.304L94.264,117.304Z" style="fill:rgb(251,227,194);"/>
</svg>
