<?xml version="1.0" encoding="UTF-8" standalone="no"?>
<!DOCTYPE svg PUBLIC "-//W3C//DTD SVG 1.1//EN" "http://www.w3.org/Graphics/SVG/1.1/DTD/svg11.dtd">
<svg width="100%" height="100%" viewBox="0 0 345 147" version="1.1" xmlns="http://www.w3.org/2000/svg" xmlns:xlink="http://www.w3.org/1999/xlink" xml:space="preserve" xmlns:serif="http://www.serif.com/" style="fill-rule:evenodd;clip-rule:evenodd;stroke-linejoin:round;stroke-miterlimit:1.41421;">
    <g>
        <path d="M307.437,0.5C327.487,0.5 343.765,16.778 343.765,36.828L343.765,109.483C343.765,129.533 327.487,145.81 307.437,145.81L36.828,145.81C16.778,145.81 0.5,129.533 0.5,109.483L0.5,36.828C0.5,16.778 16.778,0.5 36.828,0.5L307.437,0.5ZM307.437,73.155L271.029,123.203L271.029,23.107L307.437,73.155ZM232.437,101.059L232.437,92.483L231.669,92.483C231.669,93.081 231.541,93.465 231.285,93.635C231.029,93.806 230.773,93.891 230.517,93.891L201.461,93.891L201.461,94.659C201.93,94.702 202.346,94.787 202.709,94.915C203.071,95.043 203.253,95.342 203.253,95.811L203.253,120.131C203.253,120.601 203.071,120.899 202.709,121.027C202.346,121.155 201.93,121.241 201.461,121.283L201.461,122.051L230.005,122.051C230.517,122.051 230.89,122.094 231.125,122.179C231.359,122.265 231.583,122.606 231.797,123.203L232.437,123.203L232.437,114.819L231.669,114.819C231.413,115.886 230.858,116.419 230.005,116.419L211.829,116.419L211.829,110.083L223.861,110.083C224.117,110.083 224.373,110.179 224.629,110.371C224.885,110.563 225.013,110.958 225.013,111.555L225.781,111.555L225.781,103.235L225.013,103.235C225.013,103.833 224.885,104.227 224.629,104.419C224.373,104.611 224.117,104.707 223.861,104.707L211.829,104.707L211.829,99.523L230.517,99.523C230.773,99.523 231.029,99.619 231.285,99.811C231.541,100.003 231.669,100.419 231.669,101.059L232.437,101.059ZM167.861,112.643C167.861,112.729 167.85,112.825 167.829,112.931C167.807,113.038 167.797,113.177 167.797,113.347C167.797,113.774 168.202,114.179 169.013,114.563C169.823,114.947 170.858,115.299 172.117,115.619C173.375,115.939 174.741,116.195 176.213,116.387C177.685,116.579 179.061,116.675 180.341,116.675C180.725,116.675 181.247,116.654 181.909,116.611C182.57,116.569 183.221,116.451 183.861,116.259C184.501,116.067 185.045,115.79 185.493,115.427C185.941,115.065 186.165,114.563 186.165,113.923C186.165,113.07 185.653,112.462 184.629,112.099C183.605,111.737 182.314,111.459 180.757,111.267C179.199,111.075 177.514,110.873 175.701,110.659C173.887,110.446 172.202,110.073 170.645,109.539C169.087,109.006 167.797,108.238 166.773,107.235C165.749,106.233 165.237,104.835 165.237,103.043C165.237,102.062 165.493,101.006 166.005,99.875C166.517,98.745 167.327,97.71 168.437,96.771C169.546,95.833 171.007,95.054 172.821,94.435C174.634,93.817 176.842,93.507 179.445,93.507C180.981,93.507 182.442,93.593 183.829,93.763C185.215,93.934 186.474,94.126 187.605,94.339C188.735,94.553 189.695,94.745 190.485,94.915C191.274,95.086 191.839,95.171 192.181,95.171C192.522,95.171 192.799,95.075 193.013,94.883C193.226,94.691 193.418,94.531 193.589,94.403L194.293,94.659L190.453,102.723L189.621,102.339C189.621,102.254 189.631,102.147 189.653,102.019C189.674,101.891 189.685,101.763 189.685,101.635C189.685,101.465 189.429,101.251 188.917,100.995C188.405,100.739 187.733,100.483 186.901,100.227C186.069,99.971 185.13,99.747 184.085,99.555C183.039,99.363 181.962,99.267 180.853,99.267C180.469,99.267 179.871,99.278 179.061,99.299C178.25,99.321 177.439,99.427 176.629,99.619C175.818,99.811 175.103,100.089 174.485,100.451C173.866,100.814 173.557,101.358 173.557,102.083C173.557,102.851 174.069,103.395 175.093,103.715C176.117,104.035 177.407,104.291 178.965,104.483C180.522,104.675 182.207,104.889 184.021,105.123C185.834,105.358 187.519,105.753 189.077,106.307C190.634,106.862 191.925,107.662 192.949,108.707C193.973,109.753 194.485,111.214 194.485,113.091C194.485,114.329 194.207,115.513 193.653,116.643C193.098,117.774 192.245,118.766 191.093,119.619C189.941,120.473 188.479,121.123 186.709,121.571C184.938,122.019 182.837,122.243 180.405,122.243C178.869,122.243 177.311,122.147 175.733,121.955C174.154,121.763 172.703,121.529 171.381,121.251C170.058,120.974 168.959,120.718 168.085,120.483C167.21,120.249 166.709,120.131 166.581,120.131C166.282,120.131 166.015,120.227 165.781,120.419C165.546,120.611 165.322,120.814 165.109,121.027L164.405,120.835L167.029,112.259L167.861,112.643ZM62.005,109.699C64.01,109.699 65.781,109.411 67.317,108.835C68.853,108.259 70.133,107.491 71.157,106.531C72.181,105.571 72.949,104.441 73.461,103.139C73.973,101.838 74.229,100.483 74.229,99.075C74.229,97.667 73.973,96.313 73.461,95.011C72.949,93.71 72.181,92.569 71.157,91.587C70.133,90.606 68.853,89.827 67.317,89.251C65.781,88.675 64.01,88.387 62.005,88.387L39.093,88.387L39.093,89.155C39.903,89.241 40.405,89.379 40.597,89.571C40.789,89.763 40.885,90.009 40.885,90.307L40.885,120.131C40.885,120.43 40.789,120.675 40.597,120.867C40.405,121.059 39.903,121.198 39.093,121.283L39.093,122.051L52.277,122.051L52.277,121.283C51.466,121.198 50.965,121.059 50.773,120.867C50.581,120.675 50.485,120.43 50.485,120.131L50.485,109.699L62.005,109.699ZM158.965,122.051L158.965,121.283C158.709,121.283 158.453,121.23 158.197,121.123C157.941,121.017 157.77,120.857 157.685,120.643C157.215,119.534 156.597,118.158 155.829,116.515C155.061,114.873 154.239,113.134 153.365,111.299C152.49,109.465 151.615,107.63 150.741,105.795C149.866,103.961 149.066,102.286 148.341,100.771C147.615,99.257 147.029,97.998 146.581,96.995C146.133,95.993 145.909,95.427 145.909,95.299C145.909,94.915 146.186,94.702 146.741,94.659L146.741,93.891L133.365,93.891L133.365,94.659C133.919,94.702 134.197,94.915 134.197,95.299C134.197,95.513 133.855,96.398 133.173,97.955C132.49,99.513 131.626,101.475 130.581,103.843C129.535,106.211 128.351,108.857 127.029,111.779C125.706,114.702 124.405,117.657 123.125,120.643C123.039,120.857 122.869,121.017 122.613,121.123C122.357,121.23 122.101,121.283 121.845,121.283L121.845,122.051L131.445,122.051L131.445,121.283C131.317,121.283 131.146,121.262 130.933,121.219C130.719,121.177 130.613,121.006 130.613,120.707C130.613,120.537 130.698,120.27 130.869,119.907C131.039,119.545 131.231,119.15 131.445,118.723C131.658,118.297 131.861,117.87 132.053,117.443C132.244,117.017 132.383,116.654 132.469,116.355L147.317,116.355C147.445,116.654 147.615,117.017 147.829,117.443C148.042,117.87 148.245,118.297 148.437,118.723C148.629,119.15 148.799,119.545 148.949,119.907C149.098,120.27 149.173,120.537 149.173,120.707C149.173,121.006 149.066,121.177 148.853,121.219C148.639,121.262 148.469,121.283 148.341,121.283L148.341,122.051L158.965,122.051ZM115.381,122.051L115.381,121.283C114.869,121.241 114.442,121.155 114.101,121.027C113.759,120.899 113.589,120.601 113.589,120.131L113.589,95.811C113.589,95.342 113.759,95.043 114.101,94.915C114.442,94.787 114.869,94.702 115.381,94.659L115.381,93.891L103.221,93.891L103.221,94.659C103.733,94.702 104.159,94.787 104.501,94.915C104.842,95.043 105.013,95.342 105.013,95.811L105.013,103.875L90.869,103.875L90.869,95.811C90.869,95.342 91.039,95.043 91.381,94.915C91.722,94.787 92.149,94.702 92.661,94.659L92.661,93.891L80.501,93.891L80.501,94.659C81.013,94.702 81.439,94.787 81.781,94.915C82.122,95.043 82.293,95.342 82.293,95.811L82.293,120.131C82.293,120.601 82.122,120.899 81.781,121.027C81.439,121.155 81.013,121.241 80.501,121.283L80.501,122.051L92.661,122.051L92.661,121.283C92.149,121.241 91.722,121.155 91.381,121.027C91.039,120.899 90.869,120.601 90.869,120.131L90.869,110.403L105.013,110.403L105.013,120.131C105.013,120.601 104.842,120.899 104.501,121.027C104.159,121.155 103.733,121.241 103.221,121.283L103.221,122.051L115.381,122.051ZM139.765,100.547L134.517,111.747L145.141,111.747L139.765,100.547ZM60.213,95.555C62.005,95.555 63.317,95.833 64.149,96.387C64.981,96.942 65.397,97.838 65.397,99.075C65.397,100.441 64.981,101.422 64.149,102.019C63.317,102.617 62.005,102.915 60.213,102.915L50.485,102.915L50.485,95.555L60.213,95.555ZM118.581,35.779L118.581,27.203L117.813,27.203C117.813,27.801 117.685,28.185 117.429,28.355C117.173,28.526 116.917,28.611 116.661,28.611L87.605,28.611L87.605,29.379C88.074,29.422 88.49,29.507 88.853,29.635C89.215,29.763 89.397,30.062 89.397,30.531L89.397,54.851C89.397,55.321 89.215,55.619 88.853,55.747C88.49,55.875 88.074,55.961 87.605,56.003L87.605,56.771L116.149,56.771C116.661,56.771 117.034,56.814 117.269,56.899C117.503,56.985 117.727,57.326 117.941,57.923L118.581,57.923L118.581,49.539L117.813,49.539C117.557,50.606 117.002,51.139 116.149,51.139L97.973,51.139L97.973,44.803L110.005,44.803C110.261,44.803 110.517,44.899 110.773,45.091C111.029,45.283 111.157,45.678 111.157,46.275L111.925,46.275L111.925,37.955L111.157,37.955C111.157,38.553 111.029,38.947 110.773,39.139C110.517,39.331 110.261,39.427 110.005,39.427L97.973,39.427L97.973,34.243L116.661,34.243C116.917,34.243 117.173,34.339 117.429,34.531C117.685,34.723 117.813,35.139 117.813,35.779L118.581,35.779ZM159.541,56.771L159.541,56.003C159.071,56.003 158.73,55.897 158.517,55.683L147.061,41.539L155.957,29.955C156.17,29.699 156.437,29.539 156.757,29.475C157.077,29.411 157.279,29.379 157.365,29.379L157.365,28.611L144.629,28.611L144.629,29.379C144.927,29.379 145.215,29.401 145.493,29.443C145.77,29.486 145.909,29.678 145.909,30.019C145.909,30.19 145.77,30.478 145.493,30.883C145.215,31.289 144.874,31.747 144.469,32.259C144.063,32.771 143.647,33.294 143.221,33.827C142.794,34.361 142.431,34.841 142.133,35.267C141.749,34.841 141.311,34.382 140.821,33.891C140.33,33.401 139.882,32.91 139.477,32.419C139.071,31.929 138.719,31.47 138.421,31.043C138.122,30.617 137.973,30.275 137.973,30.019C137.973,29.678 138.186,29.486 138.613,29.443C139.039,29.401 139.317,29.379 139.445,29.379L139.445,28.611L125.813,28.611L125.813,29.379C125.983,29.379 126.239,29.411 126.581,29.475C126.922,29.539 127.199,29.699 127.413,29.955L136.949,42.051L126.517,55.683C126.389,55.897 126.09,56.003 125.621,56.003L125.621,56.771L138.101,56.771L138.101,56.003C137.93,56.003 137.685,55.982 137.365,55.939C137.045,55.897 136.885,55.769 136.885,55.555C136.885,55.385 137.13,54.969 137.621,54.307C138.111,53.646 138.655,52.921 139.253,52.131C139.85,51.342 140.426,50.585 140.981,49.859C141.535,49.134 141.877,48.643 142.005,48.387C142.175,48.643 142.538,49.091 143.093,49.731C143.647,50.371 144.234,51.065 144.853,51.811C145.471,52.558 146.026,53.283 146.517,53.987C147.007,54.691 147.253,55.214 147.253,55.555C147.253,55.769 147.103,55.897 146.805,55.939C146.506,55.982 146.314,56.003 146.229,56.003L146.229,56.771L159.541,56.771ZM195.061,36.547L195.061,27.203L194.293,27.203C194.293,27.801 194.165,28.185 193.909,28.355C193.653,28.526 193.397,28.611 193.141,28.611L166.261,28.611C166.005,28.611 165.749,28.526 165.493,28.355C165.237,28.185 165.109,27.801 165.109,27.203L164.341,27.203L164.341,36.547L165.109,36.547C165.109,35.95 165.237,35.566 165.493,35.395C165.748,35.225 166.004,35.139 166.261,35.139L175.413,35.139L175.413,54.851C175.413,55.321 175.253,55.619 174.933,55.747C174.613,55.875 174.282,55.961 173.941,56.003L173.941,56.771L185.461,56.771L185.461,56.003C185.119,55.961 184.789,55.875 184.469,55.747C184.149,55.619 183.989,55.321 183.989,54.851L183.989,35.139L193.141,35.139C193.397,35.139 193.653,35.225 193.909,35.395C194.165,35.566 194.293,35.95 194.293,36.547L195.061,36.547ZM78.645,56.771L78.645,56.003C77.834,55.918 77.333,55.779 77.141,55.587C76.949,55.395 76.853,55.15 76.853,54.851L76.853,25.027C76.853,24.729 76.949,24.483 77.141,24.291C77.333,24.099 77.834,23.961 78.645,23.875L78.645,23.107L66.933,23.107L66.933,23.875C67.829,23.918 68.277,24.302 68.277,25.027L68.277,42.115C67.509,41.305 66.591,40.334 65.525,39.203C64.458,38.073 63.349,36.878 62.197,35.619C61.045,34.361 59.903,33.102 58.773,31.843C57.642,30.585 56.629,29.443 55.733,28.419C54.837,27.395 54.111,26.542 53.557,25.859C53.002,25.177 52.725,24.793 52.725,24.707C52.725,24.494 52.842,24.313 53.077,24.163C53.311,24.014 53.791,23.918 54.517,23.875L54.517,23.107L39.093,23.107L39.093,23.875C39.903,23.961 40.405,24.099 40.597,24.291C40.789,24.483 40.885,24.729 40.885,25.027L40.885,54.851C40.885,55.15 40.789,55.395 40.597,55.587C40.405,55.779 39.903,55.918 39.093,56.003L39.093,56.771L51.253,56.771L51.253,56.003C50.442,55.918 49.941,55.779 49.749,55.587C49.557,55.395 49.461,55.15 49.461,54.851L49.461,34.755C52.277,37.913 54.687,40.59 56.693,42.787C58.698,44.985 60.383,46.819 61.749,48.291C63.114,49.763 64.213,50.937 65.045,51.811C65.877,52.686 66.506,53.358 66.933,53.827C67.359,54.297 67.637,54.627 67.765,54.819C67.893,55.011 67.957,55.171 67.957,55.299C67.957,55.513 67.861,55.683 67.669,55.811C67.477,55.939 67.082,56.003 66.485,56.003L66.485,56.771L78.645,56.771Z" style="fill:rgb(251,227,194);"/>
    </g>
</svg>
