<?xml version="1.0" encoding="UTF-8" standalone="no"?>
<!DOCTYPE svg PUBLIC "-//W3C//DTD SVG 1.1//EN" "http://www.w3.org/Graphics/SVG/1.1/DTD/svg11.dtd">
<svg width="100%" height="100%" viewBox="0 0 512 512" version="1.1" xmlns="http://www.w3.org/2000/svg" xmlns:xlink="http://www.w3.org/1999/xlink" xml:space="preserve" xmlns:serif="http://www.serif.com/" style="fill-rule:evenodd;clip-rule:evenodd;stroke-linejoin:round;stroke-miterlimit:1.41421;">
    <path d="M427.535,406.094L427.535,367.617C420.461,369.473 413.043,370.469 405.395,370.469C389.902,370.469 377.297,383.074 377.297,398.566C377.297,431 350.91,457.383 318.48,457.383L194.516,457.383C162.082,457.383 135.695,430.996 135.695,398.566C135.695,383.07 123.09,370.469 107.598,370.469C99.949,370.469 92.531,369.473 85.461,367.617L85.461,406.094C85.461,429.387 96.867,451.242 115.98,464.555L169.937,502.148C179.187,508.594 190.035,512 201.309,512L311.688,512C322.961,512 333.809,508.594 343.063,502.148L397.016,464.555C416.125,451.242 427.535,429.387 427.535,406.094Z" style="fill:rgb(251,227,194);fill-rule:nonzero;"/>
    <path d="M256.496,0C143.188,0 51,92.184 51,205.496L51,283.152C51,314.359 76.391,339.75 107.598,339.75C140.031,339.75 166.414,366.137 166.414,398.566C166.414,414.059 179.02,426.664 194.512,426.664L318.477,426.664C333.973,426.664 346.578,414.059 346.578,398.566C346.578,366.133 372.965,339.75 405.395,339.75C436.602,339.75 461.992,314.359 461.992,283.152L461.992,205.496C461.992,92.184 369.809,0 256.496,0ZM81.871,214.066C81.871,180.465 113.18,153.129 151.668,153.129C190.152,153.129 221.461,180.465 221.461,214.066C221.461,247.664 190.152,275 151.668,275C113.18,275 81.871,247.664 81.871,214.066ZM305.195,354.188C302.316,358.254 297.645,360.672 292.66,360.672L220.332,360.672C215.352,360.672 210.676,358.254 207.797,354.188C204.918,350.117 204.191,344.906 205.848,340.207L242.008,237.59C244.172,231.445 249.98,227.336 256.496,227.336C263.008,227.336 268.816,231.445 270.98,237.59L307.145,340.207C308.801,344.906 308.074,350.117 305.195,354.188ZM431.121,214.066C431.121,247.664 399.813,275 361.328,275C322.84,275 291.531,247.664 291.531,214.066C291.531,180.465 322.84,153.129 361.328,153.129C399.813,153.129 431.121,180.465 431.121,214.066Z" style="fill:rgb(251,227,194);fill-rule:nonzero;"/>
    <path d="M151.668,244.281C173.211,244.281 190.742,230.727 190.742,214.066C190.742,197.402 173.211,183.848 151.668,183.848C130.121,183.848 112.59,197.402 112.59,214.066C112.59,230.727 130.121,244.281 151.668,244.281Z" style="fill:rgb(251,227,194);fill-rule:nonzero;"/>
    <path d="M361.328,183.848C339.781,183.848 322.25,197.402 322.25,214.066C322.25,230.727 339.781,244.281 361.328,244.281C382.871,244.281 400.402,230.727 400.402,214.066C400.402,197.402 382.871,183.848 361.328,183.848Z" style="fill:rgb(251,227,194);fill-rule:nonzero;"/>
    <path d="M242.031,329.953L270.961,329.953L256.496,288.91L242.031,329.953Z" style="fill:rgb(251,227,194);fill-rule:nonzero;"/>
</svg>
