<svg height="512pt" viewBox="-45 0 512 512" width="512pt" xmlns="http://www.w3.org/2000/svg"><path d="m279.722656 512h-137.046875c-3.121093 0-6.171875-.957031-8.734375-2.742188l-63.917968-44.535156c-24.707032-17.210937-39.453126-45.464844-39.453126-75.574218v-53.921876h361.261719v53.921876c0 30.109374-14.75 58.363281-39.453125 75.574218l-63.921875 44.535156c-2.5625 1.785157-5.609375 2.742188-8.734375 2.742188zm0 0" fill="#e1f1fa"/><path d="m211.199219 512h68.523437c3.121094 0 6.171875-.957031 8.734375-2.742188l63.917969-44.535156c24.707031-17.210937 39.453125-45.464844 39.453125-75.574218v-53.921876h-180.628906zm0 0" fill="#cde2ff"/><path d="m266.183594 436.300781h-109.96875c-29.683594 0-53.832032-24.148437-53.832032-53.832031 0-12.832031-10.4375-23.273438-23.273437-23.273438-43.621094 0-79.109375-35.488281-79.109375-79.109374v-68.890626c0-116.453124 94.746094-211.195312 211.199219-211.195312s211.199219 94.742188 211.199219 211.199219v68.886719c0 43.621093-35.488282 79.113281-79.109376 79.113281-12.835937 0-23.273437 10.4375-23.273437 23.269531 0 29.683594-24.148437 53.832031-53.832031 53.832031zm0 0" fill="#f5fafc"/><path d="m266.183594 436.300781c29.683594 0 53.832031-24.148437 53.832031-53.832031 0-12.832031 10.4375-23.273438 23.273437-23.273438 43.621094 0 79.109376-35.488281 79.109376-79.109374v-68.890626c0-116.453124-94.746094-211.195312-211.199219-211.195312v436.300781zm0 0" fill="#e1f1fa"/><path d="m118.203125 274.507812c-35.050781 0-63.566406-24.992187-63.566406-55.707031 0-30.71875 28.515625-55.707031 63.566406-55.707031 35.054687 0 63.570313 24.988281 63.570313 55.707031 0 30.714844-28.515626 55.707031-63.570313 55.707031zm0 0" fill="#3d4883"/><path d="m304.195312 274.507812c-35.050781 0-63.570312-24.992187-63.570312-55.707031 0-30.71875 28.519531-55.707031 63.570312-55.707031 35.050782 0 63.566407 24.988281 63.566407 55.707031 0 30.714844-28.515625 55.707031-63.566407 55.707031zm0 0" fill="#16204c"/><path d="m243.277344 350.507812h-64.15625c-4.960938 0-9.609375-2.40625-12.472656-6.453124-2.863282-4.046876-3.585938-9.230469-1.9375-13.902344l32.078124-91.03125c2.152344-6.113282 7.929688-10.203125 14.40625-10.203125 6.480469 0 12.257813 4.089843 14.410157 10.203125l32.082031 91.027344c1.648438 4.675781.925781 9.863281-1.9375 13.90625-2.863281 4.046874-7.511719 6.453124-12.472656 6.453124zm0 0" fill="#3d4883"/><path d="m225.609375 239.121094c-2.15625-6.113282-7.929687-10.199219-14.410156-10.203125v121.589843h32.078125c4.960937 0 9.609375-2.40625 12.472656-6.453124 2.863281-4.046876 3.585938-9.230469 1.9375-13.90625zm0 0" fill="#16204c"/></svg>