<?xml version="1.0" encoding="UTF-8" standalone="no"?>
<!DOCTYPE svg PUBLIC "-//W3C//DTD SVG 1.1//EN" "http://www.w3.org/Graphics/SVG/1.1/DTD/svg11.dtd">
<svg width="100%" height="100%" viewBox="0 0 297 297" version="1.1" xmlns="http://www.w3.org/2000/svg" xmlns:xlink="http://www.w3.org/1999/xlink" xml:space="preserve" xmlns:serif="http://www.serif.com/" style="fill-rule:evenodd;clip-rule:evenodd;stroke-linejoin:round;stroke-miterlimit:1.41421;">
    <g>
        <path d="M25.953,296.332L270.379,296.332C270.379,235.332 247.21,201.821 212.433,186.139L163.812,224.065L147.499,199.297L132.186,224.147L83.069,186.503C48.754,202.339 25.953,235.332 25.953,296.332ZM198.506,223.332L213.964,238.48L229.422,223.332C229.422,223.332 237.742,239.089 213.964,257.106C190.186,239.089 198.506,223.332 198.506,223.332Z" style="fill:rgb(251,227,194);fill-rule:nonzero;"/>
        <path d="M147.499,199.352L188.413,178.543C188.389,178.537 188.364,178.532 188.339,178.526C212.005,164.693 227.916,139.034 227.916,109.643C227.916,101.549 226.7,93.741 224.459,86.379C208.573,94.287 180.51,105.393 148.166,105.393C115.822,105.393 87.759,94.288 71.873,86.379C69.632,93.74 68.416,101.549 68.416,109.643C68.416,139.004 84.294,164.642 107.921,178.485L147.499,199.352Z" style="fill:rgb(251,227,194);fill-rule:nonzero;"/>
        <path d="M147.833,89.393C182.401,89.393 212.833,74.935 223.833,68.422L223.833,53.601C238.833,47.932 247.001,40.633 247.001,32.668C247.001,14.625 202.76,0 148.083,0C93.406,0 48.957,14.625 48.957,32.668C48.957,40.633 57.833,47.932 71.833,53.601L71.833,68.411C83.833,74.916 113.393,89.393 147.833,89.393ZM165.166,45.332C165.166,47.83 164.613,50.195 163.645,52.332L164.166,52.332C168.584,52.332 172.166,55.914 172.166,60.332C172.166,64.75 168.584,68.332 164.166,68.332L131.166,68.332C126.748,68.332 123.166,64.75 123.166,60.332C123.166,55.914 126.748,52.332 131.166,52.332L132.686,52.332C131.718,50.195 131.166,47.83 131.166,45.332C131.166,35.943 138.777,28.332 148.166,28.332C157.555,28.332 165.166,35.943 165.166,45.332Z" style="fill:rgb(251,227,194);fill-rule:nonzero;"/>
    </g>
</svg>
