<?xml version="1.0" encoding="UTF-8" standalone="no"?>
<!DOCTYPE svg PUBLIC "-//W3C//DTD SVG 1.1//EN" "http://www.w3.org/Graphics/SVG/1.1/DTD/svg11.dtd">
<svg width="100%" height="100%" viewBox="0 0 80 71" version="1.1" xmlns="http://www.w3.org/2000/svg" xmlns:xlink="http://www.w3.org/1999/xlink" xml:space="preserve" xmlns:serif="http://www.serif.com/" style="fill-rule:evenodd;clip-rule:evenodd;stroke-linejoin:round;stroke-miterlimit:1.41421;">
    <g transform="matrix(0.770511,0,0,0.770511,-351.953,-20.0645)">
        <g transform="matrix(0.168919,0,0,0.168919,534.779,93.0405)">
            <g transform="matrix(1,0,0,1,-148,-148)">
                <g>
                    <path d="M270.213,296C270.213,235 247.667,202.124 212.667,186.306L212.667,296L270.213,296Z" style="fill:rgb(251,227,194);fill-rule:nonzero;"/>
                    <path d="M25.787,296L81.667,296L81.667,186.766C48.667,202.765 25.787,236 25.787,296Z" style="fill:rgb(251,227,194);fill-rule:nonzero;"/>
                    <path d="M147.667,205.006C129.354,205.006 112.667,199.835 97.667,190.882L97.667,296L196.667,296L196.667,191.486C182.667,200.066 165.563,205.006 147.667,205.006Z" style="fill:rgb(251,227,194);fill-rule:nonzero;"/>
                    <path d="M148,82C187.888,82 222.516,90.21 241.974,95.999C241.975,94.207 241.976,92.476 241.977,90.896C241.979,86.402 241.981,83.113 241.982,83.01C241.58,37.091 207.705,0 164.954,0L132.8,0C90.051,0 54.441,37.091 54.02,83.011C54.021,83.114 54.023,86.401 54.025,90.89C54.026,92.471 54.027,94.204 54.028,95.998C73.486,90.21 108.113,82 148,82Z" style="fill:rgb(251,227,194);fill-rule:nonzero;"/>
                    <path d="M56.381,127.202C60.733,125.865 65.126,124.641 69.543,123.496C76.261,160.742 108.819,189.006 148,189.006C187.274,189.006 219.895,160.608 226.505,123.229C230.904,124.374 235.276,125.6 239.607,126.937C240.417,127.188 241.235,127.3 242.039,127.293C245.429,127.265 248.559,125.066 249.612,121.654C250.335,119.315 249.928,116.9 248.706,114.986C247.723,113.446 246.046,112.23 244.164,111.649C233.253,108.279 222.668,105.507 210.668,103.312L210.668,114.123C210.668,130.049 197.677,142.96 181.75,142.96C168.863,142.96 157.804,134.569 154.298,122.849C151.288,112.791 154.566,101.155 148.127,100.872C141.687,101.154 144.945,112.791 141.935,122.849C138.427,134.57 126.963,142.96 114.076,142.96C98.148,142.96 84.669,130.049 84.669,114.123L84.669,103.585C73.669,105.788 62.436,108.555 51.519,111.907C49.774,112.443 48.435,113.526 47.451,114.905C46.053,116.864 45.584,119.425 46.345,121.903C47.4,125.339 50.579,127.548 53.993,127.554C53.999,127.554 54.015,127.556 54.021,127.556C54.797,127.557 55.599,127.442 56.381,127.202Z" style="fill:rgb(251,227,194);fill-rule:nonzero;"/>
                </g>
            </g>
        </g>
        <g transform="matrix(0.16835,0,0,0.16835,481.779,93.0405)">
            <g transform="matrix(1,0,0,1,-148.5,-148.5)">
                <g>
                    <path d="M26.287,297L270.713,297C270.713,235 247.541,202.207 212.761,186.523L163.146,224.312L147.834,199.474L131.52,224.29L83.392,186.914C49.083,202.752 26.287,236 26.287,297ZM208.466,228L213.167,213.53L217.868,228L233.083,228L220.774,236.957L225.475,251.434L213.166,242.495L200.857,251.44L205.558,236.957L193.252,228L208.466,228Z" style="fill:rgb(251,227,194);fill-rule:nonzero;"/>
                    <path d="M147.833,199.46L188.747,178.65C188.723,178.644 188.697,178.638 188.672,178.632C212.339,164.8 228.25,139.14 228.25,109.749C228.25,102.608 227.298,95.694 225.538,89.108C209.797,97.037 181.366,108.5 148.5,108.5C115.634,108.5 87.203,97.037 71.462,89.109C69.702,95.695 68.75,102.609 68.75,109.75C68.75,139.119 84.638,164.764 108.276,178.604L147.833,199.46Z" style="fill:rgb(251,227,194);fill-rule:nonzero;"/>
                    <path d="M148.5,41.667C186.839,41.667 219.166,57.271 232.321,64.658C232.071,52.307 218.314,38.78 202.333,25C188.652,13.204 171.333,0 148.5,0C125.667,0 108.348,13.204 94.667,25C78.686,38.78 64.929,52.307 64.679,64.658C77.834,57.271 110.161,41.667 148.5,41.667ZM149,14.001C153.418,14.001 157,17.583 157,22.001C157,26.419 153.418,30.001 149,30.001C144.582,30.001 141,26.419 141,22.001C141,17.583 144.582,14.001 149,14.001Z" style="fill:rgb(251,227,194);fill-rule:nonzero;"/>
                    <path d="M217.728,75.095C203.348,67.966 177.546,57.667 148.501,57.667C119.36,57.667 93.62,67.944 79.273,75.072C93.652,82.201 119.454,92.5 148.5,92.5C177.641,92.5 203.381,82.224 217.728,75.095Z" style="fill:rgb(251,227,194);fill-rule:nonzero;"/>
                </g>
            </g>
        </g>
        <g transform="matrix(0.16873,0,0,0.16873,509.779,51.0405)">
            <g transform="matrix(1,0,0,1,-148.166,-148.166)">
                <g>
                    <path d="M25.953,296.332L270.379,296.332C270.379,235.332 247.21,201.821 212.433,186.139L163.812,224.065L147.499,199.297L132.186,224.147L83.069,186.503C48.754,202.339 25.953,235.332 25.953,296.332ZM198.506,223.332L213.964,238.48L229.422,223.332C229.422,223.332 237.742,239.089 213.964,257.106C190.186,239.089 198.506,223.332 198.506,223.332Z" style="fill:rgb(251,227,194);fill-rule:nonzero;"/>
                    <path d="M147.499,199.352L188.413,178.543C188.389,178.537 188.364,178.532 188.339,178.526C212.005,164.693 227.916,139.034 227.916,109.643C227.916,101.549 226.7,93.741 224.459,86.379C208.573,94.287 180.51,105.393 148.166,105.393C115.822,105.393 87.759,94.288 71.873,86.379C69.632,93.74 68.416,101.549 68.416,109.643C68.416,139.004 84.294,164.642 107.921,178.485L147.499,199.352Z" style="fill:rgb(251,227,194);fill-rule:nonzero;"/>
                    <path d="M147.833,89.393C182.401,89.393 212.833,74.935 223.833,68.422L223.833,53.601C238.833,47.932 247.001,40.633 247.001,32.668C247.001,14.625 202.76,0 148.083,0C93.406,0 48.957,14.625 48.957,32.668C48.957,40.633 57.833,47.932 71.833,53.601L71.833,68.411C83.833,74.916 113.393,89.393 147.833,89.393ZM165.166,45.332C165.166,47.83 164.613,50.195 163.645,52.332L164.166,52.332C168.584,52.332 172.166,55.914 172.166,60.332C172.166,64.75 168.584,68.332 164.166,68.332L131.166,68.332C126.748,68.332 123.166,64.75 123.166,60.332C123.166,55.914 126.748,52.332 131.166,52.332L132.686,52.332C131.718,50.195 131.166,47.83 131.166,45.332C131.166,35.943 138.777,28.332 148.166,28.332C157.555,28.332 165.166,35.943 165.166,45.332Z" style="fill:rgb(251,227,194);fill-rule:nonzero;"/>
                </g>
            </g>
        </g>
    </g>
</svg>
