<?xml version="1.0" encoding="UTF-8" standalone="no"?>
<!DOCTYPE svg PUBLIC "-//W3C//DTD SVG 1.1//EN" "http://www.w3.org/Graphics/SVG/1.1/DTD/svg11.dtd">
<svg width="100%" height="100%" viewBox="0 0 478 478" version="1.1" xmlns="http://www.w3.org/2000/svg" xmlns:xlink="http://www.w3.org/1999/xlink" xml:space="preserve" xmlns:serif="http://www.serif.com/" style="fill-rule:evenodd;clip-rule:evenodd;stroke-linejoin:round;stroke-miterlimit:1.41421;">
    <path d="M472.863,175.662L353.396,56.195C346.73,49.531 335.924,49.533 329.26,56.199C326.061,59.399 324.264,63.737 324.263,68.262L324.263,119.462L204.796,119.462C195.37,119.462 187.729,127.103 187.729,136.529C187.729,145.955 195.37,153.596 204.796,153.596L341.33,153.596C350.756,153.596 358.397,145.955 358.397,136.529L358.397,109.46L436.665,187.728L358.397,265.996L358.397,238.928C358.397,229.502 350.756,221.861 341.33,221.861L153.596,221.861L153.596,170.661C153.594,161.235 145.951,153.596 136.526,153.598C132.002,153.599 127.663,155.396 124.463,158.595L4.997,278.062C-1.666,284.727 -1.666,295.53 4.997,302.194L124.464,421.661C127.664,424.862 132.004,426.661 136.53,426.662C138.773,426.669 140.996,426.228 143.066,425.365C149.442,422.721 153.598,416.498 153.596,409.595L153.596,358.395L273.063,358.395C282.489,358.395 290.13,350.754 290.13,341.328C290.13,331.902 282.489,324.261 273.063,324.261L136.53,324.261C127.104,324.261 119.463,331.902 119.463,341.328L119.463,368.396L41.195,290.128L119.463,211.86L119.463,238.928C119.463,248.354 127.104,255.995 136.53,255.995L324.263,255.995L324.263,307.195C324.265,316.621 331.908,324.26 341.333,324.258C345.857,324.257 350.196,322.46 353.396,319.261L472.863,199.794C479.525,193.129 479.525,182.326 472.863,175.662Z" style="fill:rgb(251,227,194);fill-rule:nonzero;"/>
</svg>
