<?xml version="1.0" encoding="UTF-8" standalone="no"?>
<!DOCTYPE svg PUBLIC "-//W3C//DTD SVG 1.1//EN" "http://www.w3.org/Graphics/SVG/1.1/DTD/svg11.dtd">
<svg width="100%" height="100%" viewBox="0 0 341 111" version="1.1" xmlns="http://www.w3.org/2000/svg" xmlns:xlink="http://www.w3.org/1999/xlink" xml:space="preserve" xmlns:serif="http://www.serif.com/" style="fill-rule:evenodd;clip-rule:evenodd;stroke-linejoin:round;stroke-miterlimit:1.41421;">
    <g id="Validate">
        <path d="M312.593,0.5C327.754,0.5 340.062,12.809 340.062,27.969L340.062,82.908C340.062,98.069 327.754,110.378 312.593,110.378L27.969,110.378C12.809,110.378 0.5,98.069 0.5,82.908L0.5,27.969C0.5,12.809 12.809,0.5 27.969,0.5L312.593,0.5ZM138.182,76.539L138.182,70.054L137.601,70.054C137.601,70.505 137.504,70.796 137.31,70.925C137.117,71.054 136.923,71.118 136.73,71.118L114.759,71.118L114.759,71.699C115.114,71.731 115.428,71.796 115.703,71.893C115.977,71.99 116.114,72.215 116.114,72.57L116.114,90.96C116.114,91.315 115.977,91.541 115.703,91.638C115.428,91.734 115.114,91.799 114.759,91.831L114.759,92.412L136.343,92.412C136.73,92.412 137.012,92.444 137.189,92.509C137.367,92.573 137.536,92.831 137.698,93.283L138.182,93.283L138.182,86.943L137.601,86.943C137.407,87.75 136.988,88.153 136.343,88.153L122.599,88.153L122.599,83.362L131.697,83.362C131.89,83.362 132.084,83.435 132.277,83.58C132.471,83.725 132.568,84.024 132.568,84.475L133.149,84.475L133.149,78.184L132.568,78.184C132.568,78.636 132.471,78.934 132.277,79.079C132.084,79.224 131.89,79.297 131.697,79.297L122.599,79.297L122.599,75.377L136.73,75.377C136.923,75.377 137.117,75.45 137.31,75.595C137.504,75.74 137.601,76.055 137.601,76.539L138.182,76.539ZM312.593,55.439L285.063,93.283L285.063,17.595L312.593,55.439ZM178.107,85.298C178.107,85.362 178.099,85.435 178.082,85.516C178.066,85.596 178.058,85.701 178.058,85.83C178.058,86.153 178.365,86.459 178.978,86.75C179.591,87.04 180.373,87.306 181.325,87.548C182.277,87.79 183.309,87.984 184.422,88.129C185.535,88.274 186.576,88.347 187.544,88.347C187.834,88.347 188.229,88.331 188.729,88.298C189.229,88.266 189.721,88.177 190.205,88.032C190.689,87.887 191.101,87.677 191.439,87.403C191.778,87.129 191.947,86.75 191.947,86.266C191.947,85.621 191.56,85.161 190.786,84.887C190.012,84.612 189.036,84.403 187.858,84.257C186.681,84.112 185.406,83.959 184.035,83.798C182.664,83.636 181.389,83.354 180.212,82.951C179.034,82.548 178.058,81.967 177.284,81.209C176.51,80.45 176.123,79.394 176.123,78.039C176.123,77.297 176.316,76.498 176.703,75.643C177.09,74.788 177.703,74.006 178.542,73.296C179.381,72.586 180.486,71.998 181.857,71.53C183.228,71.062 184.898,70.828 186.866,70.828C188.027,70.828 189.132,70.893 190.181,71.022C191.23,71.151 192.181,71.296 193.036,71.457C193.891,71.619 194.617,71.764 195.214,71.893C195.811,72.022 196.238,72.086 196.496,72.086C196.755,72.086 196.964,72.014 197.126,71.869C197.287,71.723 197.432,71.602 197.561,71.506L198.093,71.699L195.19,77.797L194.561,77.506C194.561,77.442 194.569,77.361 194.585,77.265C194.601,77.168 194.609,77.071 194.609,76.974C194.609,76.845 194.415,76.684 194.028,76.49C193.641,76.297 193.133,76.103 192.504,75.909C191.875,75.716 191.165,75.547 190.375,75.401C189.584,75.256 188.77,75.184 187.931,75.184C187.64,75.184 187.189,75.192 186.576,75.208C185.963,75.224 185.35,75.305 184.737,75.45C184.124,75.595 183.583,75.805 183.115,76.079C182.648,76.353 182.414,76.764 182.414,77.313C182.414,77.894 182.801,78.305 183.575,78.547C184.35,78.789 185.325,78.982 186.503,79.128C187.681,79.273 188.955,79.434 190.326,79.612C191.697,79.789 192.972,80.087 194.149,80.507C195.327,80.926 196.303,81.531 197.077,82.322C197.851,83.112 198.239,84.217 198.239,85.637C198.239,86.572 198.029,87.468 197.61,88.323C197.19,89.178 196.545,89.928 195.674,90.573C194.803,91.218 193.698,91.71 192.359,92.049C191.02,92.388 189.431,92.557 187.592,92.557C186.43,92.557 185.253,92.484 184.059,92.339C182.865,92.194 181.769,92.017 180.768,91.807C179.768,91.597 178.937,91.404 178.276,91.226C177.615,91.049 177.236,90.96 177.139,90.96C176.913,90.96 176.711,91.033 176.534,91.178C176.356,91.323 176.187,91.476 176.026,91.638L175.493,91.492L177.478,85.008L178.107,85.298ZM67.429,70.828C68.946,70.828 70.47,71.038 72.003,71.457C73.535,71.877 74.922,72.53 76.165,73.417C77.407,74.304 78.415,75.442 79.189,76.829C79.963,78.216 80.351,79.862 80.351,81.765C80.351,83.701 79.963,85.354 79.189,86.726C78.415,88.097 77.407,89.218 76.165,90.089C74.922,90.96 73.535,91.589 72.003,91.976C70.47,92.363 68.946,92.557 67.429,92.557C65.913,92.557 64.389,92.363 62.856,91.976C61.324,91.589 59.936,90.96 58.694,90.089C57.452,89.218 56.444,88.097 55.67,86.726C54.895,85.354 54.508,83.701 54.508,81.765C54.508,79.862 54.895,78.216 55.67,76.829C56.444,75.442 57.452,74.304 58.694,73.417C59.936,72.53 61.324,71.877 62.856,71.457C64.389,71.038 65.913,70.828 67.429,70.828ZM170.751,92.412L170.751,91.831C170.364,91.799 170.041,91.734 169.783,91.638C169.525,91.541 169.396,91.315 169.396,90.96L169.396,72.57C169.396,72.215 169.525,71.99 169.783,71.893C170.041,71.796 170.364,71.731 170.751,71.699L170.751,71.118L162.233,71.118L162.233,71.699C162.621,71.731 162.943,71.796 163.201,71.893C163.459,71.99 163.588,72.215 163.588,72.57L163.588,82.104C162.556,81.007 161.524,79.91 160.491,78.813C159.459,77.716 158.523,76.716 157.684,75.813C156.846,74.909 156.16,74.159 155.628,73.562C155.095,72.965 154.829,72.635 154.829,72.57C154.829,72.215 154.942,71.99 155.168,71.893C155.394,71.796 155.62,71.731 155.845,71.699L155.845,71.118L144.328,71.118L144.328,71.699C144.683,71.731 144.989,71.796 145.247,71.893C145.505,71.99 145.634,72.215 145.634,72.57L145.634,90.96C145.634,91.315 145.513,91.541 145.271,91.638C145.029,91.734 144.747,91.799 144.424,91.831L144.424,92.412L152.7,92.412L152.7,91.831C152.345,91.799 152.046,91.734 151.805,91.638C151.563,91.541 151.442,91.315 151.442,90.96L151.442,78.281L151.538,78.184C152.893,79.797 154.265,81.322 155.652,82.757C157.039,84.193 158.289,85.491 159.402,86.653C160.515,87.814 161.427,88.79 162.137,89.581C162.846,90.371 163.201,90.912 163.201,91.202C163.201,91.492 163.032,91.67 162.693,91.734C162.354,91.799 162.056,91.831 161.798,91.831L161.798,92.412L170.751,92.412ZM50.83,77.119L50.83,70.054L50.25,70.054C50.25,70.505 50.153,70.796 49.959,70.925C49.766,71.054 49.572,71.118 49.378,71.118L29.053,71.118C28.859,71.118 28.666,71.054 28.472,70.925C28.279,70.796 28.182,70.505 28.182,70.054L27.601,70.054L27.601,77.119L28.182,77.119C28.182,76.668 28.279,76.377 28.472,76.248C28.666,76.119 28.859,76.055 29.053,76.055L35.973,76.055L35.973,90.96C35.973,91.315 35.852,91.541 35.61,91.638C35.368,91.734 35.118,91.799 34.86,91.831L34.86,92.412L43.571,92.412L43.571,91.831C43.313,91.799 43.063,91.734 42.821,91.638C42.579,91.541 42.458,91.315 42.458,90.96L42.458,76.055L49.378,76.055C49.572,76.055 49.766,76.119 49.959,76.248C50.153,76.377 50.25,76.668 50.25,77.119L50.83,77.119ZM110.5,92.412L110.5,91.831C110.274,91.799 110.073,91.734 109.895,91.638C109.718,91.541 109.548,91.363 109.387,91.105L101.354,79.2C101.967,78.716 102.701,78.063 103.556,77.24C104.411,76.418 105.274,75.611 106.145,74.821C107.016,74.03 107.838,73.328 108.613,72.715C109.387,72.102 110.016,71.764 110.5,71.699L110.5,71.118L101.063,71.118L101.063,71.699C101.321,71.731 101.588,71.796 101.862,71.893C102.136,71.99 102.273,72.215 102.273,72.57C102.273,72.667 102.104,72.893 101.765,73.248C101.426,73.603 100.975,74.046 100.41,74.579C99.845,75.111 99.208,75.684 98.498,76.297C97.789,76.91 97.071,77.531 96.345,78.16C95.619,78.789 94.925,79.394 94.264,79.975C93.603,80.555 93.03,81.055 92.546,81.475L92.546,72.57C92.546,72.215 92.691,71.99 92.981,71.893C93.272,71.796 93.578,71.731 93.901,71.699L93.901,71.118L84.851,71.118L84.851,71.699C85.142,71.667 85.416,71.715 85.674,71.844C85.932,71.973 86.061,72.215 86.061,72.57L86.061,90.96C86.061,91.315 85.932,91.557 85.674,91.686C85.416,91.815 85.142,91.863 84.851,91.831L84.851,92.412L93.901,92.412L93.901,91.831C93.578,91.799 93.272,91.734 92.981,91.638C92.691,91.541 92.546,91.315 92.546,90.96L92.546,86.992L96.756,82.927C96.885,83.152 97.103,83.491 97.41,83.943C97.716,84.395 98.063,84.903 98.45,85.467C98.837,86.032 99.24,86.629 99.66,87.258C100.079,87.887 100.458,88.46 100.797,88.976C101.136,89.492 101.418,89.936 101.644,90.307C101.87,90.678 101.983,90.912 101.983,91.008C101.983,91.363 101.813,91.589 101.475,91.686C101.136,91.783 100.854,91.831 100.628,91.831L100.628,92.412L110.5,92.412ZM67.429,75.958C66.526,75.958 65.671,76.095 64.865,76.369C64.058,76.643 63.348,77.031 62.735,77.531C62.122,78.031 61.646,78.636 61.308,79.345C60.969,80.055 60.799,80.862 60.799,81.765C60.799,82.669 60.969,83.475 61.308,84.185C61.646,84.895 62.122,85.5 62.735,86C63.348,86.5 64.058,86.887 64.865,87.161C65.671,87.435 66.526,87.572 67.429,87.572C68.365,87.572 69.228,87.435 70.019,87.161C70.809,86.887 71.511,86.5 72.124,86C72.737,85.5 73.213,84.895 73.551,84.185C73.89,83.475 74.059,82.669 74.059,81.765C74.059,80.862 73.89,80.055 73.551,79.345C73.213,78.636 72.737,78.031 72.124,77.531C71.511,77.031 70.809,76.643 70.019,76.369C69.228,76.095 68.365,75.958 67.429,75.958ZM173.122,27.177L173.122,20.692L172.541,20.692C172.541,21.143 172.445,21.434 172.251,21.563C172.057,21.692 171.864,21.756 171.67,21.756L149.699,21.756L149.699,22.337C150.054,22.369 150.369,22.434 150.643,22.531C150.917,22.628 151.054,22.853 151.054,23.208L151.054,41.598C151.054,41.953 150.917,42.179 150.643,42.276C150.369,42.372 150.054,42.437 149.699,42.469L149.699,43.05L171.283,43.05C171.67,43.05 171.953,43.082 172.13,43.147C172.307,43.211 172.477,43.469 172.638,43.921L173.122,43.921L173.122,37.581L172.541,37.581C172.348,38.388 171.928,38.791 171.283,38.791L157.539,38.791L157.539,34L166.637,34C166.831,34 167.025,34.073 167.218,34.218C167.412,34.363 167.508,34.662 167.508,35.113L168.089,35.113L168.089,28.822L167.508,28.822C167.508,29.274 167.412,29.572 167.218,29.717C167.024,29.862 166.831,29.935 166.637,29.935L157.539,29.935L157.539,26.015L171.67,26.015C171.864,26.015 172.057,26.088 172.251,26.233C172.445,26.378 172.541,26.693 172.541,27.177L173.122,27.177ZM114.904,43.05L114.904,42.469C114.71,42.469 114.517,42.429 114.323,42.348C114.13,42.268 114.001,42.147 113.936,41.985C113.581,41.146 113.113,40.106 112.533,38.864C111.952,37.622 111.331,36.307 110.67,34.92C110.008,33.532 109.347,32.145 108.685,30.758C108.024,29.37 107.419,28.104 106.871,26.959C106.322,25.814 105.879,24.862 105.54,24.104C105.201,23.345 105.032,22.918 105.032,22.821C105.032,22.531 105.241,22.369 105.661,22.337L105.661,21.756L95.546,21.756L95.546,22.337C95.966,22.369 96.176,22.531 96.176,22.821C96.176,22.982 95.917,23.652 95.401,24.83C94.885,26.007 94.232,27.491 93.441,29.282C92.651,31.072 91.756,33.073 90.755,35.283C89.755,37.493 88.771,39.727 87.803,41.985C87.739,42.147 87.61,42.268 87.416,42.348C87.223,42.429 87.029,42.469 86.835,42.469L86.835,43.05L94.095,43.05L94.095,42.469C93.998,42.469 93.869,42.453 93.707,42.421C93.546,42.388 93.465,42.259 93.465,42.034C93.465,41.905 93.53,41.703 93.659,41.429C93.788,41.154 93.933,40.856 94.095,40.533C94.256,40.211 94.409,39.888 94.554,39.566C94.699,39.243 94.804,38.969 94.869,38.743L106.096,38.743C106.193,38.969 106.322,39.243 106.483,39.566C106.645,39.888 106.798,40.211 106.943,40.533C107.088,40.856 107.217,41.154 107.33,41.429C107.443,41.703 107.5,41.905 107.5,42.034C107.5,42.259 107.419,42.388 107.258,42.421C107.096,42.453 106.967,42.469 106.871,42.469L106.871,43.05L114.904,43.05ZM134.649,43.05C136.456,43.05 137.988,42.76 139.246,42.179C140.504,41.598 141.545,40.824 142.368,39.856C143.19,38.888 143.787,37.759 144.158,36.468C144.529,35.178 144.715,33.823 144.715,32.403C144.715,30.984 144.529,29.629 144.158,28.338C143.787,27.048 143.19,25.918 142.368,24.95C141.545,23.983 140.504,23.208 139.246,22.628C137.988,22.047 136.456,21.756 134.649,21.756L120.131,21.756L120.131,22.337C120.485,22.369 120.784,22.434 121.026,22.531C121.268,22.628 121.389,22.853 121.389,23.208L121.389,41.598C121.389,41.953 121.268,42.179 121.026,42.276C120.784,42.372 120.485,42.437 120.131,42.469L120.131,43.05L134.649,43.05ZM82.867,43.05L82.867,42.469C82.512,42.469 82.182,42.372 81.875,42.179C81.569,41.985 81.335,41.759 81.173,41.501L76.866,35.016C78.415,34.436 79.697,33.637 80.714,32.621C81.73,31.605 82.238,30.225 82.238,28.483C82.238,26.257 81.52,24.579 80.084,23.45C78.649,22.321 76.721,21.756 74.301,21.756L58.767,21.756L58.767,22.337C59.025,22.369 59.267,22.434 59.493,22.531C59.719,22.628 59.832,22.853 59.832,23.208L59.832,41.598C59.832,41.953 59.719,42.179 59.493,42.276C59.267,42.372 59.057,42.437 58.864,42.469L58.864,43.05L67.187,43.05L67.187,42.469C66.833,42.437 66.534,42.372 66.292,42.276C66.05,42.179 65.929,41.953 65.929,41.598L65.929,35.113L70.575,35.113C70.672,35.307 70.922,35.743 71.325,36.42C71.728,37.097 72.148,37.807 72.583,38.549C73.019,39.291 73.406,39.985 73.745,40.63C74.084,41.275 74.253,41.679 74.253,41.84C74.253,42.098 74.116,42.268 73.842,42.348C73.567,42.429 73.317,42.469 73.092,42.469L73.092,43.05L82.867,43.05ZM53.927,24.854L53.927,16.24L53.347,16.24C53.282,16.788 53.185,17.151 53.056,17.328C52.927,17.506 52.734,17.595 52.476,17.595L28.569,17.595C28.311,17.595 28.117,17.506 27.988,17.328C27.859,17.151 27.762,16.788 27.698,16.24L27.117,16.24L27.117,24.854L27.698,24.854C27.762,24.305 27.859,23.942 27.988,23.765C28.117,23.587 28.311,23.499 28.569,23.499L36.893,23.499L36.893,41.598C36.893,41.824 36.82,42.009 36.675,42.155C36.53,42.3 36.151,42.405 35.538,42.469L35.538,43.05L45.507,43.05L45.507,42.469C44.894,42.405 44.515,42.3 44.37,42.155C44.224,42.009 44.152,41.824 44.152,41.598L44.152,23.499L52.476,23.499C52.734,23.499 52.927,23.587 53.056,23.765C53.185,23.942 53.282,24.305 53.347,24.854L53.927,24.854ZM131.358,26.402C133.875,26.402 135.681,26.846 136.778,27.733C137.875,28.62 138.424,30.177 138.424,32.403C138.424,34.629 137.875,36.186 136.778,37.073C135.681,37.96 133.875,38.404 131.358,38.404L127.874,38.404L127.874,26.402L131.358,26.402ZM100.386,26.789L96.417,35.258L104.451,35.258L100.386,26.789ZM72.462,25.822C73.914,25.822 74.89,26.072 75.39,26.572C75.89,27.072 76.14,27.693 76.14,28.435C76.14,29.306 75.842,29.959 75.245,30.395C74.648,30.83 73.834,31.048 72.801,31.048L65.929,31.048L65.929,25.822L72.462,25.822Z" style="fill:rgb(251,227,194);"/>
    </g>
</svg>
