<?xml version="1.0" encoding="UTF-8" standalone="no"?>
<!DOCTYPE svg PUBLIC "-//W3C//DTD SVG 1.1//EN" "http://www.w3.org/Graphics/SVG/1.1/DTD/svg11.dtd">
<svg width="100%" height="100%" viewBox="0 0 1338 480" version="1.1" xmlns="http://www.w3.org/2000/svg" xmlns:xlink="http://www.w3.org/1999/xlink" xml:space="preserve" xmlns:serif="http://www.serif.com/" style="fill-rule:evenodd;clip-rule:evenodd;stroke-linejoin:round;stroke-miterlimit:1.41421;">
    <g transform="matrix(1,0,0,1,-4311.16,-840)">
        <g id="Logo" transform="matrix(0.369438,0,0,0.34188,2337.26,581.538)">
            <rect x="5343" y="756" width="3621" height="1404" style="fill:none;"/>
            <g id="Logo1" serif:id="Logo" transform="matrix(3.16373,0,0,3.41875,1081.84,211.074)">
                <g transform="matrix(1,0,0,1,551.426,194)">
                    <text x="792.824px" y="362.587px" style="font-family:'AlfaSlabOne-Regular', 'Alfa Slab One';font-size:500px;fill:rgb(249,206,147);">R ks</text>
                </g>
                <g transform="matrix(0.722005,0,0,0.722005,1820.39,374.587)">
                    <g transform="matrix(1,0,0,1,-251.804,-251.804)">
                        <g>
                            <path d="M335.738,436.459L335.738,184.656C335.738,180.014 331.986,176.263 327.345,176.263L176.263,176.263C171.621,176.263 167.87,180.015 167.87,184.656L167.87,436.459C167.87,441.101 171.622,444.852 176.263,444.852L176.263,453.245C171.621,453.245 167.87,456.997 167.87,461.638L167.87,495.212C167.87,499.854 171.622,503.605 176.263,503.605L327.345,503.605C331.987,503.605 335.738,499.853 335.738,495.212L335.738,461.64C335.738,456.998 331.986,453.247 327.345,453.247L327.345,444.854C331.986,444.853 335.738,441.101 335.738,436.459Z" style="fill:rgb(249,206,147);fill-rule:nonzero;"/>
                            <path d="M184.656,159.478L318.951,159.478C323.593,159.478 327.344,155.726 327.344,151.085L327.344,142.692C327.344,87.514 300.98,34.803 256.839,1.682C253.851,-0.559 249.755,-0.559 246.767,1.682C202.626,34.803 176.262,87.513 176.262,142.692L176.262,151.085C176.263,155.726 180.014,159.478 184.656,159.478Z" style="fill:rgb(223,76,76);fill-rule:nonzero;"/>
                        </g>
                    </g>
                </g>
            </g>
        </g>
    </g>
</svg>
