<?xml version="1.0" encoding="UTF-8" standalone="no"?>
<!DOCTYPE svg PUBLIC "-//W3C//DTD SVG 1.1//EN" "http://www.w3.org/Graphics/SVG/1.1/DTD/svg11.dtd">
<svg width="100%" height="100%" viewBox="0 0 1338 480" version="1.1" xmlns="http://www.w3.org/2000/svg" xmlns:xlink="http://www.w3.org/1999/xlink" xml:space="preserve" xmlns:serif="http://www.serif.com/" style="fill-rule:evenodd;clip-rule:evenodd;stroke-linejoin:round;stroke-miterlimit:1.41421;">
    <g transform="matrix(1,0,0,1,-4311.16,-840)">
        <g id="Logo" transform="matrix(0.369438,0,0,0.34188,2337.26,581.538)">
            <rect x="5343" y="756" width="3621" height="1404" style="fill:none;"/>
            <g id="Logo1" serif:id="Logo" transform="matrix(3.16373,0,0,3.41875,1081.84,211.074)">
                <g transform="matrix(1,0,0,1,551.426,194)">
                    <path d="M802.824,280.587L827.824,280.587L827.824,55.587L802.824,55.587L802.824,-26.413L1032.32,-26.413C1075.32,-26.413 1108.16,-17.579 1130.82,0.087C1153.49,17.754 1164.82,46.421 1164.82,86.087C1164.82,108.421 1160.32,127.754 1151.32,144.087C1142.32,160.421 1129.49,171.754 1112.82,178.087L1113.32,183.087C1145.32,188.087 1161.32,207.754 1161.32,242.087L1161.32,280.587L1184.82,280.587L1184.82,362.587L1026.32,362.587L1026.32,245.087C1026.32,232.087 1024.41,222.254 1020.57,215.587C1016.74,208.921 1010.74,204.421 1002.57,202.087C994.407,199.754 982.824,198.587 967.824,198.587L967.824,280.587L1000.82,280.587L1000.82,362.587L802.824,362.587L802.824,280.587ZM994.824,137.587C1004.49,137.587 1011.74,135.004 1016.57,129.837C1021.41,124.671 1023.82,116.587 1023.82,105.587L1023.82,87.587C1023.82,76.587 1021.41,68.504 1016.57,63.337C1011.74,58.171 1004.49,55.587 994.824,55.587L967.824,55.587L967.824,137.587L994.824,137.587Z" style="fill:rgb(249,206,147);fill-rule:nonzero;"/>
                    <path d="M1653.32,280.587L1674.82,280.587L1674.82,362.587L1552.32,362.587L1500.82,266.587L1488.82,266.587L1488.82,362.587L1351.82,362.587L1351.82,280.587L1373.82,280.587L1373.82,55.587L1351.82,55.587L1351.82,-26.413L1488.82,-26.413L1488.82,176.587L1500.82,176.587L1562.82,84.587L1668.32,84.587L1668.32,166.587L1647.82,166.587L1605.32,214.087L1653.32,280.587Z" style="fill:rgb(249,206,147);fill-rule:nonzero;"/>
                    <path d="M1812.32,369.587C1770.32,369.587 1729.82,362.921 1690.82,349.587L1690.82,275.587L1771.82,275.587L1771.82,280.587C1771.82,296.587 1781.99,304.587 1802.32,304.587C1820.32,304.587 1829.32,298.421 1829.32,286.087C1829.32,279.421 1826.74,274.421 1821.57,271.087C1816.41,267.754 1807.32,264.921 1794.32,262.587L1769.32,258.087C1716.99,248.754 1690.82,219.087 1690.82,169.087C1690.82,140.087 1701.82,117.587 1723.82,101.587C1745.82,85.587 1775.49,77.587 1812.82,77.587C1854.49,77.587 1889.66,84.587 1918.32,98.587L1918.32,168.087L1842.32,168.087L1842.32,163.087C1842.32,156.421 1840.07,151.337 1835.57,147.837C1831.07,144.337 1824.49,142.587 1815.82,142.587C1799.16,142.587 1790.82,147.921 1790.82,158.587C1790.82,164.254 1793.16,168.587 1797.82,171.587C1802.49,174.587 1810.99,177.421 1823.32,180.087L1851.82,185.587C1881.49,191.254 1902.66,201.754 1915.32,217.087C1927.99,232.421 1934.32,252.087 1934.32,276.087C1934.32,306.421 1923.74,329.587 1902.57,345.587C1881.41,361.587 1851.32,369.587 1812.32,369.587Z" style="fill:rgb(249,206,147);fill-rule:nonzero;"/>
                </g>
                <g transform="matrix(0.722005,0,0,0.722005,1820.39,374.587)">
                    <g transform="matrix(1,0,0,1,-251.804,-251.804)">
                        <g>
                            <path d="M335.738,436.459L335.738,184.656C335.738,180.014 331.986,176.263 327.345,176.263L176.263,176.263C171.621,176.263 167.87,180.015 167.87,184.656L167.87,436.459C167.87,441.101 171.622,444.852 176.263,444.852L176.263,453.245C171.621,453.245 167.87,456.997 167.87,461.638L167.87,495.212C167.87,499.854 171.622,503.605 176.263,503.605L327.345,503.605C331.987,503.605 335.738,499.853 335.738,495.212L335.738,461.64C335.738,456.998 331.986,453.247 327.345,453.247L327.345,444.854C331.986,444.853 335.738,441.101 335.738,436.459Z" style="fill:rgb(249,206,147);fill-rule:nonzero;"/>
                            <path d="M184.656,159.478L318.951,159.478C323.593,159.478 327.344,155.726 327.344,151.085L327.344,142.692C327.344,87.514 300.98,34.803 256.839,1.682C253.851,-0.559 249.755,-0.559 246.767,1.682C202.626,34.803 176.262,87.513 176.262,142.692L176.262,151.085C176.263,155.726 180.014,159.478 184.656,159.478Z" style="fill:rgb(158,185,193);fill-rule:nonzero;"/>
                            <path d="M326.633,127C327.054,131.641 327.29,136.311 327.336,141L176.27,141C176.316,136.311 176.552,131.64 176.973,127L326.633,127Z" style="fill:rgb(227,76,76);"/>
                        </g>
                    </g>
                </g>
            </g>
        </g>
    </g>
</svg>
