<?xml version="1.0" encoding="UTF-8" standalone="no"?>
<!DOCTYPE svg PUBLIC "-//W3C//DTD SVG 1.1//EN" "http://www.w3.org/Graphics/SVG/1.1/DTD/svg11.dtd">
<svg width="100%" height="100%" viewBox="0 0 1338 480" version="1.1" xmlns="http://www.w3.org/2000/svg" xmlns:xlink="http://www.w3.org/1999/xlink" xml:space="preserve" xmlns:serif="http://www.serif.com/" style="fill-rule:evenodd;clip-rule:evenodd;stroke-linejoin:round;stroke-miterlimit:1.41421;">
    <g transform="matrix(1.1688,0,0,1.1688,-1574.23,-186.3)">
        <g id="Logo">
            <g id="Logo1" serif:id="Logo">
                <g transform="matrix(1,0,0,1,1344.25,556.587)">
                    <path d="M10,-82L35,-82L35,-307L10,-307L10,-389L239.5,-389C282.5,-389 315.333,-380.167 338,-362.5C360.667,-344.833 372,-316.167 372,-276.5C372,-254.167 367.5,-234.833 358.5,-218.5C349.5,-202.167 336.667,-190.833 320,-184.5L320.5,-179.5C352.5,-174.5 368.5,-154.833 368.5,-120.5L368.5,-82L392,-82L392,0L233.5,0L233.5,-117.5C233.5,-130.5 231.583,-140.333 227.75,-147C223.917,-153.667 217.917,-158.167 209.75,-160.5C201.583,-162.833 190,-164 175,-164L175,-82L208,-82L208,0L10,0L10,-82ZM202,-225C211.667,-225 218.917,-227.583 223.75,-232.75C228.583,-237.917 231,-246 231,-257L231,-275C231,-286 228.583,-294.083 223.75,-299.25C218.917,-304.417 211.667,-307 202,-307L175,-307L175,-225L202,-225Z" style="fill:rgb(249,206,147);fill-rule:nonzero;"/>
                    <path d="M860.5,-82L882,-82L882,0L759.5,0L708,-96L696,-96L696,0L559,0L559,-82L581,-82L581,-307L559,-307L559,-389L696,-389L696,-186L708,-186L770,-278L875.5,-278L875.5,-196L855,-196L812.5,-148.5L860.5,-82Z" style="fill:rgb(249,206,147);fill-rule:nonzero;"/>
                    <path d="M1019.5,7C977.5,7 937,0.333 898,-13L898,-87L979,-87L979,-82C979,-66 989.167,-58 1009.5,-58C1027.5,-58 1036.5,-64.167 1036.5,-76.5C1036.5,-83.167 1033.92,-88.167 1028.75,-91.5C1023.58,-94.833 1014.5,-97.667 1001.5,-100L976.5,-104.5C924.167,-113.833 898,-143.5 898,-193.5C898,-222.5 909,-245 931,-261C953,-277 982.667,-285 1020,-285C1061.67,-285 1096.83,-278 1125.5,-264L1125.5,-194.5L1049.5,-194.5L1049.5,-199.5C1049.5,-206.167 1047.25,-211.25 1042.75,-214.75C1038.25,-218.25 1031.67,-220 1023,-220C1006.33,-220 998,-214.667 998,-204C998,-198.333 1000.33,-194 1005,-191C1009.67,-188 1018.17,-185.167 1030.5,-182.5L1059,-177C1088.67,-171.333 1109.83,-160.833 1122.5,-145.5C1135.17,-130.167 1141.5,-110.5 1141.5,-86.5C1141.5,-56.167 1130.92,-33 1109.75,-17C1088.58,-1 1058.5,7 1019.5,7Z" style="fill:rgb(249,206,147);fill-rule:nonzero;"/>
                </g>
                <g transform="matrix(0.722005,0,0,0.722005,1638.59,192.783)">
                    <path d="M335.738,436.459L335.738,184.656C335.738,180.014 331.986,176.263 327.345,176.263L176.263,176.263C171.621,176.263 167.87,180.015 167.87,184.656L167.87,436.459C167.87,441.101 171.622,444.852 176.263,444.852L176.263,453.245C171.621,453.245 167.87,456.997 167.87,461.638L167.87,495.212C167.87,499.854 171.622,503.605 176.263,503.605L327.345,503.605C331.987,503.605 335.738,499.853 335.738,495.212L335.738,461.64C335.738,456.998 331.986,453.247 327.345,453.247L327.345,444.854C331.986,444.853 335.738,441.101 335.738,436.459Z" style="fill:rgb(249,206,147);fill-rule:nonzero;"/>
                    <path d="M184.656,159.478L318.951,159.478C323.593,159.478 327.344,155.726 327.344,151.085L327.344,142.692C327.344,87.514 300.98,34.803 256.839,1.682C253.851,-0.559 249.755,-0.559 246.767,1.682C202.626,34.803 176.262,87.513 176.262,142.692L176.262,151.085C176.263,155.726 180.014,159.478 184.656,159.478Z" style="fill:rgb(223,76,76);fill-rule:nonzero;"/>
                </g>
            </g>
        </g>
    </g>
</svg>
